<?xml version="1.0" encoding="utf-8"?>
<!-- Generator: Adobe Illustrator 19.0.0, SVG Export Plug-In . SVG Version: 6.00 Build 0)  -->
<svg version="1.1" id="Capa_1" xmlns="http://www.w3.org/2000/svg" xmlns:xlink="http://www.w3.org/1999/xlink" x="0px" y="0px"
	 viewBox="0 0 750 1334" style="enable-background:new 0 0 750 1334;" xml:space="preserve">
<style type="text/css">
	.st0{display:none;}
	.st1{fill:#12769D;}
	.st2{font-family:'Roboto-Regular';}
	.st3{font-size:80px;}
</style>
<g id="XMLID_5_">
	<g id="otBoRH.tif" class="st0">
		
			<image style="display:inline;overflow:visible;" width="764" height="1342" id="Layer_0" xlink:href="C75F12F617F76F03.png"  transform="matrix(0.9937 0 0 0.9937 -4.0025 0.5)">
		</image>
	</g>
	<g id="XMLID_7_">
		<g id="XMLID_9_">
			<g id="XMLID_298_">
				<g id="XMLID_302_">
					<g id="XMLID_303_">
						<g id="XMLID_304_">
							<path id="XMLID_391_" class="st1" d="M411,547.6c-0.3-0.8-1.9,0.6-2.2,0.7C409.8,549.2,411.4,547.3,411,547.6z"/>
							<path id="XMLID_390_" class="st1" d="M422,557.1l-0.9,0.2c0,0,0.7,0.2,1.4,0.4c0.7,0.2,1.4,0.5,1.4,0.5s-0.5-0.3-1-0.5
								C422.5,557.4,422,557.1,422,557.1z"/>
							<path id="XMLID_389_" class="st1" d="M428.1,569.2c1.3-1.4,0.7-2.4-0.3-3.5c-1-1-2.3-2-2.3-3.4l0.5-0.7l-3,0.4
								C424.7,564.3,428.1,566.9,428.1,569.2z"/>
							<path id="XMLID_388_" class="st1" d="M424.3,579c1.1-1,1.8,0.9-0.3-1.7c-0.1,0.2-0.1,0.3-0.2,0.4
								C423.9,578,424.1,578.4,424.3,579z"/>
							<path id="XMLID_387_" class="st1" d="M423.8,577.8C423.1,576.5,423.2,579.1,423.8,577.8L423.8,577.8z"/>
							<path id="XMLID_386_" class="st1" d="M427.3,583.3l-1.9-1.2c-0.6,0.7,0,2.3-0.8,2C426,585.6,426.6,584.9,427.3,583.3z"/>
							<path id="XMLID_385_" class="st1" d="M430.4,583.8l-0.9-0.7C429.3,583.5,429.3,583.8,430.4,583.8z"/>
							<path id="XMLID_384_" class="st1" d="M427.7,581.8l1.9,1.4c0.4-0.5,1.4-1-0.8-0.7C429.8,582.2,428.7,582.2,427.7,581.8z"/>
							<path id="XMLID_383_" class="st1" d="M427.7,580.5c0.3-1.3,0.1-2.7,2-1.6C427.7,575.9,425.7,577.5,427.7,580.5z"/>
							<path id="XMLID_382_" class="st1" d="M431.7,568.2l0.3-1.7l-1.6-0.6C431.2,566.1,430.8,568.7,431.7,568.2z"/>
							<path id="XMLID_381_" class="st1" d="M430.5,594.7c0.7-0.2,1.6-1.4,2.4-1.9l-1.4-0.9C431.4,592.7,431.5,594.1,430.5,594.7z"
								/>
							<path id="XMLID_380_" class="st1" d="M433,592.7l2,1.4C434.4,592.3,433.7,592.3,433,592.7z"/>
							<polygon id="XMLID_379_" class="st1" points="434.2,582.5 430.2,580.5 434.5,583 							"/>
							<polygon id="XMLID_378_" class="st1" points="433.7,602 431.6,601.6 434.9,602.4 							"/>
							<path id="XMLID_377_" class="st1" d="M436.1,606.6c-1.7-0.2-1.8,2.1-3,1.6c0.8,1.2,2.4,1.8,3.9,2.4
								C436,609.8,435.7,608.6,436.1,606.6z"/>
							<path id="XMLID_376_" class="st1" d="M439.3,611.7c-0.6-0.4-1.4-0.7-2.2-1C437.6,611.1,438.3,611.4,439.3,611.7z"/>
							<path id="XMLID_375_" class="st1" d="M436.1,597.5c-0.4,0.3-1.3,1.1-1.3,2.4l1.6-1.6C436.3,598,436.2,597.8,436.1,597.5z"/>
							<path id="XMLID_374_" class="st1" d="M436.5,598.2L436.5,598.2c0.3,0.9,0.5,1.5,0.6,1.7C437,599.7,436.8,599.2,436.5,598.2z"
								/>
							<path id="XMLID_373_" class="st1" d="M436,597.3c0,0.1,0,0.1,0.1,0.2C436.3,597.3,436.3,597.3,436,597.3z"/>
							<path id="XMLID_372_" class="st1" d="M434.7,588.2c1.6,0.6,3.8,2.4,4.5-0.6C437.5,587.4,437.1,589.1,434.7,588.2z"/>
							<path id="XMLID_371_" class="st1" d="M438,595.3l-0.5-2.2c-0.5,0.3-1.1,1-1.9,0.7L438,595.3z"/>
							<polygon id="XMLID_370_" class="st1" points="439.1,596 438,595.3 438.2,596.1 							"/>
							<path id="XMLID_369_" class="st1" d="M439.6,607.4c1.2,0.5,1.7,1.4,2.3,2.5c-0.1-1.3-0.4-2.6-0.9-3.8
								C440.3,606.2,439,606.2,439.6,607.4z"/>
							<path id="XMLID_368_" class="st1" d="M438.3,602.8c0.1,0,0.1,0.1,0.2,0.1C438.6,602.8,438.6,602.7,438.3,602.8z"/>
							<path id="XMLID_367_" class="st1" d="M446.6,620.5c0.1-0.1,0.2-0.2,0.3-0.3c-0.1,0-0.2,0.1-0.4,0.1L446.6,620.5z"/>
							<path id="XMLID_366_" class="st1" d="M441.3,605.7c0-1-0.7-1.4-1.5-1.6c0.5,0.6,0.9,1.2,1.3,1.9
								C441.3,606,441.5,606,441.3,605.7z"/>
							<path id="XMLID_365_" class="st1" d="M441.5,614.2c0.2-0.6,0.3-1.3,0.4-2C441.5,613,440.9,614.3,441.5,614.2z"/>
							<path id="XMLID_364_" class="st1" d="M438.1,603.5c-0.1,0-0.1-0.1-0.1-0.1C437.6,603.9,437.8,603.8,438.1,603.5z"/>
							<path id="XMLID_363_" class="st1" d="M438.1,603.5c0.5,0.3,1.1,0.5,1.7,0.6c-0.4-0.5-0.8-0.9-1.3-1.2
								C438.4,603.1,438.2,603.3,438.1,603.5z"/>
							<path id="XMLID_362_" class="st1" d="M460.6,618.4c-1.9,0.6-4.6-1-3.5-3.8c-2.2-1.4-7.6,2.5-10.3,5.6c0.8-0.3,1.6-0.6,3.5,1
								c0.7-1.1,0.4-5.5,2.8-4.5c2.1,2.3,0.3,2.5-0.1,4.2c1.8-2.1,4.8,2,7.8,0l-2.2-1.9C459.2,618.8,460.4,619.3,460.6,618.4z"/>
							<path id="XMLID_361_" class="st1" d="M445.4,616.3l-0.6-0.7c0.1,1.1-0.3,2.1-1.2,3.9c1.5,1,2.3,1,2.9,0.8l-1.5-4.2
								L445.4,616.3z"/>
							<path id="XMLID_360_" class="st1" d="M443.2,611.9c2.3-0.2,4,1.4,5.6-0.7c-1.2-2.4-2.4-1-3.9-2.1c2.2,3.7-1.6-0.6-1.5,2.7
								c-0.7-0.6-1.1-1.3-1.4-1.9c0.1,0.8,0.1,1.6,0,2.4c0-0.1,0.1-0.1,0.1-0.1l0,0l0,0c0.2-0.3,0.3-0.4,0.2-0.1c0,0,0.1,0,0.1,0.1
								C442.6,611.9,442.9,611.9,443.2,611.9c0.1,1.3-0.4,0.4-0.8,0.2c-0.1,0-0.2,0-0.3,0.1c0,0,0,0,0,0l2.8,3.5
								C444.7,614.6,444.2,613.6,443.2,611.9z"/>
							<path id="XMLID_359_" class="st1" d="M444.3,587.8c-0.1,0.2-0.3,0.3-0.4,0.3C444.3,588.3,444.5,588.3,444.3,587.8z"/>
							<path id="XMLID_358_" class="st1" d="M443.9,589.9c-0.4-0.2-1.3,0-1.5-1.1c0.2-1.1,0.9-0.4,1.6-0.8c-0.8-0.3-2.3-1.3-2.5,0.9
								l0.4,0.2c0,1.9-1.5,5-1.9,4.9C441.5,592.7,442.6,591.8,443.9,589.9z"/>
							<path id="XMLID_357_" class="st1" d="M444.2,600.8l2.4,2.9l1-2.4l-1,0.5C446.1,599.7,445,600.7,444.2,600.8z"/>
							<polygon id="XMLID_356_" class="st1" points="445.7,621.3 443.5,621.8 447.2,622.4 							"/>
							<polygon id="XMLID_355_" class="st1" points="447.8,625.5 445.9,626.1 447.5,626.8 							"/>
							<path id="XMLID_354_" class="st1" d="M561.1,864.4l0.9,0.8C561.6,864.8,561.3,864.5,561.1,864.4z"/>
							<path id="XMLID_353_" class="st1" d="M558.8,857l-1,0.1C558.5,857.3,558.9,857.3,558.8,857z"/>
							<path id="XMLID_352_" class="st1" d="M489.8,731.5c-1.2,2.1-3.3,4.7-1.3,3.7l1.9-1.2C489.7,733.2,489.6,732.4,489.8,731.5z"
								/>
							<path id="XMLID_351_" class="st1" d="M528.3,801c0.2-0.2,0.3-0.4,0.5-0.6c-0.8-0.1-1.6-0.2-2.3-0.3
								C527,800.4,527.6,800.7,528.3,801z"/>
							<path id="XMLID_350_" class="st1" d="M537.1,799.2l-0.7,2.4C536.8,801,537,800.2,537.1,799.2z"/>
							<path id="XMLID_349_" class="st1" d="M575.5,903.8l2.5,0.6C577.4,902.5,576.6,903.6,575.5,903.8z"/>
							<path id="XMLID_348_" class="st1" d="M466.6,669.2c-0.3,1.5-0.3,2.6,0,3.5C467.1,670.8,468.4,668.9,466.6,669.2z"/>
							<path id="XMLID_347_" class="st1" d="M538.2,868.4c0.6,0.5,1.1,0.6,1.5,0.5C539.2,868.4,538.7,868.2,538.2,868.4z"/>
							<path id="XMLID_346_" class="st1" d="M467.9,676.3c0.1-0.3,0.1-0.5,0.2-0.8c-0.7-0.8-1.3-1.6-1.6-2.7
								C466.1,674.2,466.1,675.6,467.9,676.3z"/>
							<path id="XMLID_345_" class="st1" d="M611.4,1052.1c-0.1,0.1-0.1,0.3-0.2,0.4C611.5,1052.5,611.5,1052.3,611.4,1052.1z"/>
							<path id="XMLID_344_" class="st1" d="M597.2,1099.3c-0.2-0.4-0.3-1.1-0.4-1.7C596.7,1097.9,596.8,1098.4,597.2,1099.3z"/>
							<path id="XMLID_343_" class="st1" d="M454.1,643.1C453.6,642.2,453.8,643,454.1,643.1L454.1,643.1z"/>
							<path id="XMLID_342_" class="st1" d="M460.2,635.4c0.3,0.1,0.7,0.1,1.1,0C460.8,635.5,460.5,635.5,460.2,635.4z"/>
							<path id="XMLID_341_" class="st1" d="M484.1,680.5C484.1,680.5,484.1,680.6,484.1,680.5C484.4,680.2,484.4,680.2,484.1,680.5
								z"/>
							<path id="XMLID_340_" class="st1" d="M454.5,641.3c-0.1,0.4-0.1,0.9-0.1,1.4C454.4,642.5,454.5,642.1,454.5,641.3z"/>
							<path id="XMLID_339_" class="st1" d="M453.6,641.9c0-0.4-0.1-0.6-0.1-0.9C453.1,641.1,452.9,641.2,453.6,641.9z"/>
							<path id="XMLID_338_" class="st1" d="M454.7,644.3c-0.2-0.5-0.4-1-0.4-1.6c-0.1,0.2-0.1,0.4-0.2,0.3
								C454.3,643.3,454.5,643.7,454.7,644.3z"/>
							<path id="XMLID_337_" class="st1" d="M587.3,973.8c0,0.1-0.1,0.2-0.1,0.3C588.3,974.8,588,974.4,587.3,973.8z"/>
							<path id="XMLID_336_" class="st1" d="M519.8,748c0,0-0.1,0-0.1-0.1c0,0.1,0,0.1,0,0.2L519.8,748z"/>
							<path id="XMLID_335_" class="st1" d="M522.5,750.8c-3.1-0.5-3-1.4-2.9-2.7l-5.5,3.2L522.5,750.8z"/>
							<path id="XMLID_328_" class="st1" d="M567.1,881.7l1.1-3c4,1.9,3.6,4.4,5.5,1.3c-6.6,1.7-3.6-9.1-10.1-7.4l0.9-2
								c0.1,0.5,0.5,0.4,0.6,0.9c2.1-4-5.4-0.8-5.7-5.1c0.1-1.5,0.7-2.8,1.8-2.1l-2.6-2.6c-0.2-0.9,1-1.1,1.2-0.1l-2-4.5l0.2,0
								c-1.2-0.3-3.3-1.4-4.2-1.9c0.5-1.5,0.9,0.4,1.6-0.2l-2.4-2.1c1.3-1.6,3.7,0,4,1.9c5.7-4.5-2.3-1.6-0.2-8l1.6,2.2
								c3.2-2.8,1.2-4.2,2.6-7.7c-1,1-4,7.4-6.5,5.1c0.2-0.9,0.1-2.1-1.7-3.2c2.3-0.8,1.3-2.1,0.5-3.9l3.1-0.9c-1.5-1.7-3-1-4.8-1.8
								c-0.4-2.3,1.8-3.6,3.6-4.7c-0.7-3.7-3,3.7-4.9-0.3c0.2-3.3-1.7-5-4.7-8c0.4-2.4,2-0.3,2.6-1.3l-3-1c-0.1-0.5,0.7-0.6,1.1-0.6
								c-1.5-1.2-3.1,0.9-4.7-1.3c-3.6,0.5,3.2-6.6-1.6-8.3c0.6-1,2-0.3,3.1-0.9c-3.9-3.3-3-2.9-7.5-5.2l1-3.6
								c-1.6,2.9-5.2,1.1-8.2-0.5c-0.8,1.1-1.6,2.1-1.9,2.7l-2.9-3.2c0.3-0.6,1.5-0.6,3-0.4c-0.3-0.2-0.7-0.3-1-0.4
								c0.7-1.7,2.6-1.6,4.7-1.2c-0.4,0.7-0.9,1.3-1.4,2c2.2,0.3,4.5,0.5,6.2-0.3c-0.4-0.1-0.9-0.5-1.2-1c0.6,0.1,1.1,0.1,1.3-0.1
								c0.3-0.2-0.5-0.4-1.5-0.8l3.1-2l-1.4,0.3l0.4-5.7c-4.6-2.4-10.7-3.7-14-8.8c2.9,0.5,4.1-1.1,7.1-2.1c-2.6,2.6,2.8,3.9,3.2,7
								c-0.2-1.6,1.3-1.8,1.9-1.6l-4.6-4.2c2.4-0.7,1.4-1.7,1.9-3.4c-4.4,2.7-4.5-2.8-6.7-4.3c1.5-0.7,3.3-0.8,3.9,1.9
								c2.6-4.1-6.8-1.7-4.8-5.5c0.3,0.6,0.1,1,1,1c-1.9-1-2.1-4.9-0.4-4.6l0.3,0.6c-0.9-4.4-4.4-12.7-8.7-11.8
								c0.5-0.2,5-1.2,5.9-1.2l-16.1-2.5c3.7-0.6,10.9-6,14.1-3.3c0.1-1.2,0.3-2.6-1.7-4.2c-0.2,0.9-4.4,3.5-5,2.7
								c2.9-3.9,1.4-2.5,3.5-6.8c-0.4,1.3-6.2,2.1-6.6,0.5c0.9,0,5.3-2.1,6-1.7l-6.7-2c1.3,0.6,4.5-1.5,5.7-2.9
								c-0.9,0.8-1.2-3.5-2.1-4.3l-0.6,2.1c-0.9-4.8-9.1-1.7-10.4-6.2c1.3,0.1,7.2-1.2,7-3.7c-3.1,0-14.7,0.2-18.2-2.9l1.3-1.3
								l-2.9-2.3c4.8,0.3,15.3,2.4,19.7,4c0.6-2.1,1.6-1.1,0.6-3.6c1.1-1.4,2.7,0.6,3.1,1.3l-1.2-6.2c-3.1,1.4-4.8-3.3-7.4-2.1
								l5.6,5.1c-3,1.4-10.3-0.3-11.3-4.6c0.9-1.5,5.9-1.3,6.9-1.8c-1.3-0.1-3.5-3.1-2.9-3.8l2.3,1.1c0.3-2.7-5.6-2.2-3.6-6.1
								c-0.2-1,3-4.4,1-3.8c-3,2.9-14,7.4-17.1,7.4c0.1-0.4,1.5-6.3,2.9-8c2.2-2.6,7.6-0.2,9.5-2.5c-0.9,0.3-2.3-0.2-2.7-0.4
								c0.3-1.3,2.8-0.6,1.6-2.6c-3.3,0.9-1.4-4.5-3.1,0c-1.7-1.8-0.2-2.5-1.3-4.9c-1.7,1.6-7.8,0.5-9.6-1.3
								c0.9-0.2,1.7-1.1,2.1-1.5c-1.4-4.4-0.9-7.3-2.4-11.4c0.6-0.7,0.8-3,2.5-2.7c-0.8-0.4-2.1-0.5-2.6-1.7
								c1.8-3.5,1.5,2.6,4.1-0.5c-1.9,0.6-3.8-2.2-5.7-3.5c-2.6,1.7,1.1,4.3,2.9,5.6c-3.9,1.6-9.2,0.1-12.7-3.4
								c-2.3-2.9,2-2.5,1.2-2.8c-1.8-6.5-9-2.6-8.2-8.9c1.7-3.1,4.9-2.1,6.5-3.3c2,2.3,0.1,4.8,0.9,6.6l0.3-2.7
								c1.2,0.5,2.5,2.1,2.2,3.4c1.5-2.6-3.8-10.8-3.8-16.4c-1.2-0.5-2.7-1.6-3.4-0.5l1,1.4c-1.4,2.2-4-1.7-4.1,0.6
								c-2.3-1.5-5.4-2.8-5.5-6.2l2.6-1.7c-0.8,0.4-0.9,2.6,0.3,3c-1.7-0.7,2-6-2.2-5.8l-1.1,2.8c-2.3-1.5-6.3-2.7-6.5-5.6
								c-2.3,2.3,0.6,0.4-1.9,3.6c3.4-3.3,2.5,6.5,5.8,2.2c-3,3.4-0.3,3.9-2.5,7.6c0.9-0.5,1.4-1.6,1.9,0.7c0.3,0,0.8,0.1,1,0.1
								c0,0.1,0,0.1,0,0.2c0-0.1,0-0.1,0.1-0.2c0.2,0,0.2,0,0-0.1c0.2-0.7,0.5-1.3,1-1.7c2.6,0.2,3.9,3.6,5.5,4.3
								c0.1,1.4-1.3-0.1-2,1l2.4,1c-2,1-2.1,4.8-4.5,2.3l1,2.7c-0.5,2.1-0.1,4.4,1.3,5.4c0.1,1.4,3.6,2.3,1.5,1.8l3,3.7l-0.5,0.2
								c1.4,4.3,6.9,7.2,5,13.5c1.1,1.2,2.3,2.4,2.6,5l-1.6,1.2c1.4,1.6,0.3,6.1,2.5,6.2c-4.1,3.8,2.3,9.2,2.7,12.7l2.4-0.8
								c0.7,2.2,2.2,4.1,4.2,6.5l2-1c2.6,1.7,0.8,6.6,2.4,10.3c-0.9,0-1-1-0.8-1.8c-3.1,6.2,7,8.1,5,13.4c1.1,0.7,1.1,1.6,0.9,2.5
								c0-0.1-0.1-0.2-0.2-0.2c0,0.1,0.1,0.3,0.1,0.4c-0.2,0.6-0.4,1.2-0.6,1.8c0.4-0.6,0.6-1.2,0.7-1.6c0.3,0.8,1,1.8,2,2.8
								l-2.1,1.3c0.1,0.1,0.1,0.2,0.2,0.2c-0.4,1.4,1.4,0.5,2.9-0.7c0.6,0.4,1.2,0.8,1.9,1c-3.3,2.3,2.3,2.6-1.1,5.3
								c2.2,0.1,3.6,5.3,7.8,4.5c-0.5,0.2-0.6,0.7-0.9,0c0,1.5,0,2.9,1.6,3.7l-2.7,1.6l4.9,1.4c-1.1,2.4-1.9,3.4-4.7,2.5
								c4.9,2.9,2.5,2.9,7.1,5.2l-1.9,0.5c0.5,1.2,3.7,2.3,2.5,3.6c-2.6,4.1,4.4,14.1,3.7,22.4c5-3.3-1.3,4.2,3.1,3
								c-1.2,0.9-1.5,2.1-3.1,1.4c2.6,3.2-0.2,6.2,4.3,7.5c-1.2,0.9-2.2-0.1-2.8,0.5c0.4,0.2,1.5,0.8,0.9,1.4
								c-0.6,0.6-1.3-0.2-2-0.5c1.5,3.7,5.7,2.7,9.5,1.7c-1.1,2.5-0.5,3.4,2.4,3.9c-1,1.1-1.9,2.6-3.2,0.4c0.3,1.4,0.9,8.7,4,7.8
								c-0.6,0.7,0.4,1.9,0.9,2.1c0.8,3,0.6,3.4,1.9,6.2l0.2-1c4-0.1,1.6,2.1,2.9,4.3l-0.4,0.1c-0.9,6.3,2,1.9,0.8,8.2l2.2-1
								c5.1-1.1-1.3,5.7,1.5,8.1l0.9-1.5c2.2,1.1-5.1,6.9-5.2,8.8c-0.3,0.5-0.9-0.4-1.4-0.8c-1.4,5.4,3.2-0.4,5,2.7
								c-1.4,1.1-4.3,0.5-3.9,2.9c-1,1.5,7.3,4.8,5.2,8.8c1-1.1,2.1-2.1,3.5-0.9c1.2,2.2-2.7,7.9,1.9,8.7c-0.2,0.4-0.5,0.6-0.8,0.7
								c1.6,1.5,3.5,5.3,6,5.7c-7.4,4.1,7.3,10,0,12.2l2.1,5.4l-0.8,0.1c0.6,3.7,2.7,4.4,4.8,5.1c-0.3,1-1.1,0.6-1.5,0.6
								c0.1,5.6,0.6,6.1,5.5,9.3l-2.2,1.2c1.7,0.8-1.5,8.6,2.8,12.9c-0.3,0-0.8,0.1-1.2-0.2c4.5,4.9-2.6,15.6,6.7,15.3l3.2,3.2
								c-0.7-5.1,4-0.3,4.8-2.8c1.1,1.8-1.2,5.8-2.3,3.5l0.3-0.5c-4.8,0.4,0.1,6.6-3,7.3c3,9.6,2.9,19.8,5.2,28.9l3.3-2l0.6,3.2
								c-0.6,1-2.5,1.8-2.9-0.5c-1.7,1.7,2.7,3.4,3.5,3.2c-0.3,4.8-4.6-0.7-4.3,0.7l0.7,1.8l0.3-0.5c1.8,1.1,3.4,0.9,3.9,3.6
								c-0.3,1.9-2,1.4-1.9,2.2c-0.3,0.1-0.3,0.3,0.2,1.1l0.7,4.1l2.4-2.3c1.8,1.4,0.8,3.8,3.5,1.2c-2.1,2-1.6,5.8-0.7,9.4
								c0.8,3.6,2.1,7,1.5,8c2.6,2,3.2,4.5,3.7,7.6c0.4-0.9,3.5-2.1,3.7,0.6c-6.7,0.5-1.7,5.5-6,8.7c2.7-2.6,2.4,7.3,6.2,3.3
								c0,2.3-2.4,0.7-3.6,2.7c1.8,2.3,2.1,5.3,2.1,8.5c0,3.2-0.2,6.5,0.9,9.7c0.9-0.1,2-1.4,3.5-0.3l-3.6,4.3
								c0.7,1.2,5.2,0.2,2.7,3.1c0.7-0.5,1.7-1.2,2.1-0.4c-0.9,6.8,1.1,13.1,2.7,19.6c1.4,6.5,2.5,13.1-0.6,20.1
								c1.5-2,1.8-0.9,2,0.5c0.3-0.9,2.2-0.3,3.3-0.6l-2.6,5.9c3.4,0.6,1,5.8,4.2,6l-0.8-1.7c4,1.9,7.8-4.3,12.6-4.6
								c-2.3-1-0.9-3,0.1-5.1c1.1-2.1,1.9-4.5-1.4-6.2c0.8-1.1,1.7,0.6,2.7-0.1c-2.2-0.8-2.8-2-2.3-4.6l0.5,0.2
								c-0.8-3.4-0.8-5.9-0.6-8.5c0.1-1.3,0.2-2.7,0.4-4.2c0.1-1.5,0.2-3.2,0.2-5.2l-2.2,1c0-1.7,0.7-2.2,1.1-3.1
								c-3.9-1.2,0.6,4.7-3.6,3.6c4.3-3-2-11.6,3.1-14.1c-0.4-2.5-2.5,1.3-3-1.3l1.3-1l-2-0.3c0-1.7,1.6-2.9,2.8-3.2
								c-0.1,0.4,0.6,1.1,0.8,1.5c1.3-2.5-1.8-5.9-1.4-6.8l-0.4,2.6c-1.4-3.3-2-7.1-2.9-10.9c-0.9-3.8-2-7.4-4.2-10.4l-1,0.7
								c-3.1-4.6,0.3-4.3-1.9-9.6l0.3,0.1c-1.3-0.9-2.2-2.2-2.5-3.7c1.6,1.1,1.9-3.2,3.7-1.7c-3.5-4.9-2.3-2.3-7.2-4.9l1.6-1.3
								c-1.9-0.8-2.8-0.7-3.9-3.4c2.1,1.9,2.3-2.4,5-0.4c1.3-3.4-0.2-5.3-1.4-6.8c-1.2-1.6-2.1-2.8,0.5-4.8
								c-5.6-1.4-1.5,5.7-2.9,4.4c-1.3,1.6-4.3-1.3-4.2-3.2c-0.4-1.9,5.6-4.7,4.3-9.3c0.1,0.5,0.5,0.4,0.6,0.9
								c0.8-2.1-2.6-2.9-1.1-5.6c-3.3-0.4-0.5-2.8-4.4-2.1l2,4c-1.6-2.1-6.6-3.2-5.5-7.7c0.9,0.1,2.2,1,3,1.7c0.8-1.4-1.3-2-0.5-3.5
								c3.9-0.7,2.2,4.9,5.8,6.7c1.3-1.7-4-4.1,0.5-3.9c-5.8-0.5-0.5-4.7-5.4-6.8l2.3-0.4c-0.5-0.4-1.8-1.1-2-2.1l3.4,0.9
								c-3.2-1.9,0.9-5.5-1.1-7.5c1.4,5.1-2.5,1.9-3.6,4.5c-4.7-5.4,5.1-5.2,2-11.9c0.6,0.9-0.4,3.9-1.9,2.7
								c0.1-1.5,0.5-3.5,1.5-4.6c-1.8-4.5-2.2,1.4-4.1-0.2c2.3-2.3-1.8-2-3.2-3.7l2.3-0.7c0-5.7-5.2,0-4.8-5.3l3.8,1.1l-1.5-2.2
								l2.8-0.2c-2.7-2.1-2.4-3.1-2.4-6c-1.5,1.1-4.3,0.9-5.1-1.4c0.9-2,2.5,0.3,1.2-2.9c1.7,0.3,3.7,0.6,2,2.7
								c0.8-0.1,1.7,0.3,2.5,0.3c1.1-2.2-0.9-4.4-1.3-5.6c0,0.5,0.1,1.1-0.2,1.4l-4.6-3.9c0.7-1,1.5-0.6,2.4-0.2
								c-0.5-0.9-1.8-1.3-2.4-2.6c2-0.2,3.9-0.8,5.4,0.9l-3.4-4c0.7-0.5,1.6-3,2.4-2.6c0.4-2.9-5.4-5.1-5-8.9
								c-0.4-0.1-0.9-0.3-1.4-0.9c-0.5-3.3,0.9-6.7-2.7-9.7l2.7-3.1c-1.6-2.7-3.4,4.1-6.1-0.3c-2.1-3.1,2.5-2.2,3.1-3.6
								c-2.2-1.2-6.6-3.1-4.8-7.1C566.8,879.9,566.6,880.8,567.1,881.7z M554.3,846.5c0.7,0.5,2.6,1.4,1.4,2.4
								C552.9,848.9,554,847.9,554.3,846.5z M530.9,794.3c0.9,0.2,0.8,1.2,0.3,2.4C530.7,796.1,530.5,795.4,530.9,794.3z M460,652.3
								c0,0,0.1,0,0.1,0C459.9,654.2,460,653.5,460,652.3z M459.7,648.8c-0.4-0.2-0.7,0-1,0.2c0.7,0,1,0.7,1.1,1.5
								C460.4,650.1,460.6,649.6,459.7,648.8z M574.2,988.1l0.5-0.8C575.7,988.6,574.9,988.3,574.2,988.1z"/>
							<path id="XMLID_327_" class="st1" d="M536.1,799.4c-0.3,0.3-0.7,0.5-1.1,0.7C535.4,800.2,535.9,800.1,536.1,799.4z"/>
							<path id="XMLID_326_" class="st1" d="M575.1,903.7c0,0,0,0.1,0,0.1c0.2,0,0.3,0,0.5,0L575.1,903.7z"/>
							<path id="XMLID_325_" class="st1" d="M497.8,689.6c-0.1,0.8-0.3,1.3-0.7,1.7C497.7,691.1,498,690.6,497.8,689.6z"/>
							<path id="XMLID_324_" class="st1" d="M449.2,634.1l1.4,1.7c-0.5-0.9-0.2-1.4,0-2.1C450.1,634,449.5,634.7,449.2,634.1z"/>
							<path id="XMLID_323_" class="st1" d="M455.7,611.2c-0.4-0.2-0.3-0.6-0.7-0.8l-1,0.5C454.6,612.1,455.8,612.6,455.7,611.2z"/>
							<path id="XMLID_322_" class="st1" d="M455.9,629.2c1.8-0.9,0.6-1.9-0.3-3.1c0,0.1,0.1,0.2,0.1,0.2
								C452.9,627,454.4,628.1,455.9,629.2z"/>
							<path id="XMLID_321_" class="st1" d="M455.4,625.7c-0.3-0.4-0.5-0.8-0.6-1.3C453.7,624.8,454.8,625.1,455.4,625.7z"/>
							<path id="XMLID_320_" class="st1" d="M456.9,645.4c0.2-0.9-2.6,0.6-2-0.1C452.2,645.6,459.6,648.5,456.9,645.4z"/>
							<polygon id="XMLID_319_" class="st1" points="461.5,625.5 459.4,626.9 461.6,626.9 							"/>
							<path id="XMLID_318_" class="st1" d="M464.4,637.1l-0.3-2.5c-0.4,0.2-0.7,0-1-0.3C463.6,635.8,463.7,637.5,464.4,637.1z"/>
							<path id="XMLID_317_" class="st1" d="M463.1,634.4c-0.2-0.7-0.6-1.4-1.1-1.6C462.2,633.1,462.6,633.9,463.1,634.4z"/>
							<polygon id="XMLID_316_" class="st1" points="463.5,628.2 463.3,629.1 463.8,630.7 							"/>
							<path id="XMLID_315_" class="st1" d="M473.7,661.2l1.6,2.2c0.9-0.1,1.1-0.9,0.4-1.7C474.9,661.3,474.3,660.5,473.7,661.2z"/>
							<path id="XMLID_314_" class="st1" d="M477.1,651.3c-0.2,0.9-0.7,1.1-1.3,1.8l2.9-1.1L477.1,651.3z"/>
							<path id="XMLID_313_" class="st1" d="M480.6,658.1c0.9-0.1,3.7,2.6,2.3-0.4C482,657.8,480.4,655.6,480.6,658.1z"/>
							<polygon id="XMLID_312_" class="st1" points="491.3,696.4 491,695.8 486.3,697.7 							"/>
							<path id="XMLID_311_" class="st1" d="M515,724.8c0.1-3.3-3.2,0.4-2.8-2.8c-1.4-0.3-0.4,2.6-1.6,2.2
								C512.5,725.6,512.1,726.8,515,724.8z"/>
							<path id="XMLID_310_" class="st1" d="M510.6,724.3c-0.3-0.2-0.6-0.4-1.1-0.6C510,724,510.4,724.2,510.6,724.3z"/>
							<polygon id="XMLID_309_" class="st1" points="595.4,1106.7 594.6,1108.8 596.2,1107.4 							"/>
							<path id="XMLID_308_" class="st1" d="M599.7,1110l-3.2,0.8l3.1,0.8C599.4,1111.3,599,1110.4,599.7,1110z"/>
							<path id="XMLID_307_" class="st1" d="M558.9,839.1l-0.8,0.1c-0.7,0.6-0.6,1-0.5,2L558.9,839.1z"/>
							<polygon id="XMLID_306_" class="st1" points="564.8,865.8 564.8,865.4 562.2,867.1 							"/>
							<path id="XMLID_305_" class="st1" d="M575.2,886.6c-0.2-0.9-1.1-1.8-1.3-2.7C575,885.7,571.7,887.9,575.2,886.6z"/>
						</g>
					</g>
				</g>
			</g>
		</g>
		<g id="XMLID_4_">
			<g id="XMLID_2_">
				<g id="XMLID_203_">
					<g id="XMLID_207_">
						<g id="XMLID_208_">
							<g id="XMLID_209_">
								<path id="XMLID_296_" class="st1" d="M526.2,1053.6c0-0.2-1.4,1.3-1.7,1.5C525,1055,526.6,1053.2,526.2,1053.6z"/>
								<polygon id="XMLID_295_" class="st1" points="531.5,1052.2 530.9,1052.8 532.6,1051.6 								"/>
								<path id="XMLID_294_" class="st1" d="M533.2,1054.1c2.4-2.7-1.1-0.3-0.5-1.5l0.5-0.6l-2.2,1.9
									C531.8,1053.9,533.7,1053.1,533.2,1054.1z"/>
								<path id="XMLID_293_" class="st1" d="M528.6,1060.4c0.9-1,1.1-0.6,0.1-0.5c-0.1,0.1-0.1,0.2-0.2,0.3
									C528.6,1060.2,528.6,1060.3,528.6,1060.4z"/>
								<path id="XMLID_292_" class="st1" d="M528.5,1060.2C528.3,1060.1,527.8,1061.1,528.5,1060.2L528.5,1060.2z"/>
								<path id="XMLID_291_" class="st1" d="M529.9,1060.5l-1.1,0.6c-0.5,0.6-0.5,1-1,1.3C528.6,1062.2,529.1,1061.6,529.9,1060.5z
									"/>
								<path id="XMLID_290_" class="st1" d="M532,1058.9l-0.5,0.2C531.3,1059.4,531.3,1059.6,532,1058.9z"/>
								<path id="XMLID_289_" class="st1" d="M530.5,1059.7l1.1-0.5c0.4-0.4,1.2-1.2-0.4,0.2
									C531.9,1058.6,531.1,1059.3,530.5,1059.7z"/>
								<path id="XMLID_288_" class="st1" d="M530.7,1059.1c0.4-0.7,0.6-1.2,1.7-1.8C531.6,1057.2,529.9,1059,530.7,1059.1z"/>
								<path id="XMLID_287_" class="st1" d="M536,1051.6l0.6-0.9l-1,0.7C536,1051,535.2,1052.4,536,1051.6z"/>
								<path id="XMLID_286_" class="st1" d="M530.1,1063.4c0.6-0.5,1.4-1.5,2.1-2.2l-0.8,0.4
									C531.1,1062.1,530.9,1062.6,530.1,1063.4z"/>
								<path id="XMLID_285_" class="st1" d="M532.2,1061.2l1.2-0.6C533.3,1060.2,532.8,1060.6,532.2,1061.2z"/>
								<polygon id="XMLID_284_" class="st1" points="534.9,1056.2 532.5,1057.7 535,1056.3 								"/>
								<polygon id="XMLID_283_" class="st1" points="531.1,1064.5 529.7,1065.6 531.9,1064 								"/>
								<path id="XMLID_282_" class="st1" d="M532,1065c-1.2,0.9-1.6,1.9-2.4,2.4c0.4,0,1.4-0.7,2.4-1.3
									C531.4,1066.3,531.4,1066.1,532,1065z"/>
								<path id="XMLID_281_" class="st1" d="M533.4,1065.2c-0.3,0.2-0.9,0.5-1.4,0.9C532.3,1065.9,532.8,1065.6,533.4,1065.2z"/>
								<path id="XMLID_280_" class="st1" d="M533.6,1061.3c-0.3,0.3-1.1,1.2-1.3,1.7l1.4-1.6
									C533.6,1061.4,533.6,1061.3,533.6,1061.3z"/>
								<path id="XMLID_279_" class="st1" d="M533.7,1061.4L533.7,1061.4c0,0.2,0.1,0.3,0.1,0.4
									C533.8,1061.7,533.8,1061.6,533.7,1061.4z"/>
								<path id="XMLID_278_" class="st1" d="M533.6,1061.3C533.6,1061.3,533.6,1061.3,533.6,1061.3
									C533.7,1061.1,533.8,1061.1,533.6,1061.3z"/>
								<path id="XMLID_277_" class="st1" d="M534.3,1058.3c1-0.7,2.3-1.2,3.3-2.8C536.3,1056.4,535.8,1057.3,534.3,1058.3z"/>
								<path id="XMLID_276_" class="st1" d="M535.4,1059.3l0.1-0.6c-0.4,0.4-0.9,1-1.4,1.4L535.4,1059.3z"/>
								<polygon id="XMLID_275_" class="st1" points="536,1058.9 535.4,1059.3 535.3,1059.5 								"/>
								<path id="XMLID_274_" class="st1" d="M534.4,1063.3c0.8-0.5,1-0.4,1.2-0.4c0.1-0.5,0.1-0.8,0-1
									C535.1,1062.4,534.1,1063.1,534.4,1063.3z"/>
								<path id="XMLID_273_" class="st1" d="M534.2,1062.2c0,0,0.1,0,0.1-0.1C534.4,1062,534.4,1062,534.2,1062.2z"/>
								<path id="XMLID_272_" class="st1" d="M537.1,1064.5c0.1-0.1,0.2-0.2,0.3-0.3C537.3,1064.2,537.2,1064.3,537.1,1064.5
									L537.1,1064.5z"/>
								<path id="XMLID_271_" class="st1" d="M535.8,1061.6c0.2-0.4-0.3-0.1-0.8,0.3c0.2-0.1,0.4,0,0.6,0
									C535.8,1061.7,536,1061.6,535.8,1061.6z"/>
								<path id="XMLID_270_" class="st1" d="M534.6,1064.9c0.3-0.4,0.5-0.7,0.6-1C534.8,1064.4,534.1,1065.3,534.6,1064.9z"/>
								<path id="XMLID_269_" class="st1" d="M533.9,1062.6C533.9,1062.6,533.9,1062.7,533.9,1062.6
									C533.5,1063,533.7,1062.9,533.9,1062.6z"/>
								<path id="XMLID_268_" class="st1" d="M533.9,1062.6c0.3-0.1,0.7-0.5,1.1-0.7c-0.2,0-0.4,0.1-0.7,0.3
									C534.2,1062.3,534.1,1062.5,533.9,1062.6z"/>
								<path id="XMLID_267_" class="st1" d="M547.4,1055.4c-1.4,1.4-3.1,2.3-1.8,0.5c-1.3,0.7-5.8,5.5-8.2,8.2
									c0.6-0.6,1.2-1.1,2.3-1.7c0.7-0.9,1.2-2.4,2.7-3.4c1.1-0.3-0.2,0.8-0.8,1.7c1.6-1.9,3.1-2,5.6-4.6l-1.2,0.5
									C546.4,1056.3,547.2,1055.8,547.4,1055.4z"/>
								<path id="XMLID_266_" class="st1" d="M537,1063.5l-0.3,0.1c-0.1,0.4-0.6,1-1.5,2.3c0.9-0.5,1.5-0.9,1.9-1.4l-0.4-0.8
									L537,1063.5z"/>
								<path id="XMLID_265_" class="st1" d="M536.2,1063c1.6-1.4,2.6-1.8,4.1-3.6c-0.4-0.3-1.5,1-2.4,1.4c0.9,0.2-1,0.7-1.5,1.9
									c-0.4,0.1-0.6,0.1-0.7,0.1c-0.1,0.3-0.2,0.6-0.4,1c0,0,0.1-0.1,0.1-0.1l0,0c0,0,0,0,0,0c0.2-0.2,0.3-0.3,0.2-0.2
									c0,0,0,0,0,0C535.8,1063.3,536,1063.1,536.2,1063c-0.2,0.5-0.4,0.4-0.6,0.5c-0.1,0.1-0.2,0.1-0.2,0.2c0,0,0,0,0,0l1.4-0.2
									C536.8,1063.2,536.6,1063.1,536.2,1063z"/>
								<path id="XMLID_264_" class="st1" d="M541.1,1052.6c-0.1,0.2-0.2,0.3-0.3,0.4C541,1052.8,541.2,1052.7,541.1,1052.6z"/>
								<path id="XMLID_263_" class="st1" d="M540.4,1053.7c-0.3,0.2-0.9,0.7-0.9,0.4c0.4-0.6,0.7-0.7,1.2-1.2
									c-0.5,0.3-1.4,0.8-1.9,1.8l0.2-0.2c-0.3,0.7-2,2.9-2.2,3.1C538.3,1056.2,539.2,1055.2,540.4,1053.7z"/>
								<path id="XMLID_262_" class="st1" d="M538.7,1058l1.2-0.3l1.1-1.5l-0.8,0.8C540.3,1056.4,539.4,1057.4,538.7,1058z"/>
								<polygon id="XMLID_261_" class="st1" points="536.4,1065.3 534.7,1066.8 537.3,1064.8 								"/>
								<polygon id="XMLID_260_" class="st1" points="537.2,1065.7 535.7,1067 536.8,1066.4 								"/>
								<path id="XMLID_259_" class="st1" d="M588.7,1083.6l0.5-0.3C589,1083.4,588.8,1083.5,588.7,1083.6z"/>
								<path id="XMLID_258_" class="st1" d="M587.8,1082.5l-0.7,0.7C587.5,1082.8,587.8,1082.5,587.8,1082.5z"/>
								<path id="XMLID_257_" class="st1" d="M552.1,1080.7c-1.1,1.5-3,3.7-1.4,2.1l1.5-1.6C551.8,1081.4,551.8,1081.2,552.1,1080.7
									z"/>
								<path id="XMLID_256_" class="st1" d="M571.5,1082.2c0.1-0.2,0.3-0.3,0.4-0.5c-0.6,0.5-1.1,0.9-1.6,1.3
									C570.6,1082.7,571,1082.4,571.5,1082.2z"/>
								<path id="XMLID_255_" class="st1" d="M578,1076.1l-0.7,1.2C577.6,1076.9,577.8,1076.5,578,1076.1z"/>
								<path id="XMLID_254_" class="st1" d="M595.7,1087.5l1.7-1.4C597.2,1085.9,596.5,1086.8,595.7,1087.5z"/>
								<path id="XMLID_253_" class="st1" d="M543.9,1071.5c-0.4,0.8-0.6,1.2-0.5,1.3C544.1,1071.7,545.3,1070.3,543.9,1071.5z"/>
								<path id="XMLID_252_" class="st1" d="M571.7,1099.2c0.4-0.2,0.7-0.5,1.1-0.8C572.4,1098.5,572.1,1098.8,571.7,1099.2z"/>
								<path id="XMLID_251_" class="st1" d="M543.9,1073.3c0.1-0.2,0.2-0.3,0.3-0.4c-0.4,0.1-0.7,0.2-0.8-0.1
									C542.9,1073.6,542.6,1074.2,543.9,1073.3z"/>
								<path id="XMLID_250_" class="st1" d="M613.8,1108.8c-0.1,0.1-0.1,0.1-0.1,0.2C613.9,1108.9,613.9,1108.8,613.8,1108.8z"/>
								<path id="XMLID_249_" class="st1" d="M603.7,1129.9c-0.2,0-0.2-0.1-0.4-0.1C603.3,1129.9,603.4,1130,603.7,1129.9z"/>
								<path id="XMLID_248_" class="st1" d="M538.9,1068.8C538.7,1068.8,538.7,1069,538.9,1068.8L538.9,1068.8z"/>
								<path id="XMLID_247_" class="st1" d="M544.5,1062.2c0.2-0.1,0.4-0.3,0.8-0.7C544.9,1061.9,544.6,1062.1,544.5,1062.2z"/>
								<path id="XMLID_246_" class="st1" d="M554.9,1065.2C554.9,1065.2,554.9,1065.3,554.9,1065.2
									C555.1,1064.9,555.1,1065,554.9,1065.2z"/>
								<path id="XMLID_245_" class="st1" d="M539.4,1067.9c-0.1,0.2-0.2,0.4-0.3,0.6C539.2,1068.4,539.3,1068.2,539.4,1067.9z"/>
								<path id="XMLID_244_" class="st1" d="M538.7,1068.7c0-0.1,0-0.2,0-0.3C538.5,1068.7,538.3,1068.8,538.7,1068.7z"/>
								<path id="XMLID_243_" class="st1" d="M539.2,1068.9c-0.1-0.1-0.1-0.2,0-0.4c-0.1,0.1-0.2,0.2-0.2,0.3
									C539,1068.8,539.1,1068.9,539.2,1068.9z"/>
								<path id="XMLID_242_" class="st1" d="M599.2,1102.1c0,0.1-0.1,0.1-0.1,0.2C599.9,1101.8,599.7,1101.8,599.2,1102.1z"/>
								<path id="XMLID_241_" class="st1" d="M571.6,1068.5C571.5,1068.5,571.5,1068.5,571.6,1068.5c-0.1,0.1-0.1,0.1-0.1,0.1
									L571.6,1068.5z"/>
								<path id="XMLID_240_" class="st1" d="M573.2,1067.8c-2.1,1.7-2,1.3-1.7,0.8l-4.3,4.5L573.2,1067.8z"/>
								<path id="XMLID_233_" class="st1" d="M591.5,1085.6l1.1-1.7c2.7-1.8,2.2-0.8,3.8-3c-4.9,4.7-1.7-0.8-6.7,3.9l0.8-1.2
									c0,0.1,0.3-0.2,0.3-0.1c1.9-2.7-3.8,3.1-3.7,1.9c0.2-0.6,0.8-1.4,1.5-1.8l-1.6,0.7c0-0.2,0.9-1,0.9-0.8l-1-0.3l0.1-0.1
									c-0.9,0.6-2.2,1.6-2.8,2c0.5-0.8,0.6-0.4,1.2-1l-1.5,0.8c1.1-1.4,2.6-2.3,2.7-1.8c4.5-5-1.5,0.9,0.6-2.6l0.9-0.3
									c2.6-2.9,1.3-2.2,2.7-4.2c-0.8,1-3.6,5-5.2,5.8c0.3-0.5,0.3-0.8-0.9,0c1.7-1.7,1.1-1.5,0.8-1.6l2.3-2.2
									c-0.9,0.4-2.1,1.5-3.3,2.4c-0.1-0.5,1.6-2.3,3.1-3.8c-0.1-0.8-2.5,3.1-3.5,2.9c0.5-1.3-0.7-0.6-2.6,0.2c0.5-1.1,1.5-1.3,2-2
									l-2.1,1.5c0-0.1,0.6-0.6,0.9-0.9c-0.9,0.5-2.3,2.2-3.3,2.5c-2.6,2.4,3-4.3-0.3-1.9c0.6-0.7,1.5-1.3,2.3-2.2
									c-2.4,1.2-1.8,0.8-4.8,2.8l1.1-1.9c-1.4,2-3.8,3.6-5.8,4.9c-0.7,0.9-1.4,1.7-1.7,2.1l-1.7,0.7c0.3-0.4,1.2-1.1,2.2-2
									c-0.2,0.1-0.4,0.3-0.6,0.4c0.7-1,2.1-2.2,3.5-3.3c-0.4,0.5-0.8,1-1.2,1.6c1.5-1.2,3.2-2.6,4.5-3.9c-0.3,0.2-0.6,0.4-0.8,0.4
									c0.4-0.3,0.8-0.6,1-0.9c0.2-0.3-0.3,0.2-1,0.7l2.4-2.6l-1,1l0.9-2.2c-3.1,2-7.3,5.2-9.1,5.5c2.1-1.6,3.1-2.9,5.3-5.1
									c-2.1,2.5,1.6-0.4,1.5,0.5c0-0.5,1.1-1.4,1.6-1.7l-2.8,1.3c1.8-1.7,1.2-1.5,1.8-2.4c-3.5,3.6-2.9,1.8-4.3,2.6
									c1.2-1.2,2.5-2.3,2.6-1.7c2.3-3-4.7,3.6-2.8,1c0.1,0.1,0,0.3,0.6-0.3c-1.3,0.8-0.9-0.5,0.3-1.4l0.1,0.1
									c-0.1-1-1.7-1.8-4.8,1.1c0.4-0.4,3.8-3.5,4.4-4.1l-11.3,8.9c2.7-2.4,8.6-8.8,10.6-9.8c0.2-0.5,0.5-1.1-0.7-0.5
									c-0.3,0.5-3.6,3.9-3.9,4c2.6-3.2,1.3-1.8,3.4-4.6c-0.4,0.7-4.7,4.5-4.8,4.2c0.6-0.6,4-4,4.6-4.3l-4.6,3.4
									c0.9-0.6,3.4-3.3,4.5-4.5c-0.7,0.8-0.4-0.6-0.9-0.3l-0.7,1.1c0-1.2-6.3,4.9-6.7,4c0.9-0.7,5.3-4.8,5.5-5.6
									c-2.2,1.9-10.6,9-12.7,10l1.1-1.3l-1.8,0.9c3.4-2.7,10.6-8.3,13.6-10.4c0.7-1.1,1.3-1.4,0.9-1.7c1-1.2,1.9-1.4,2-1.4
									l-0.1-1.5c-2.4,2.4-3,1.7-5,3.7l3.4-1.5c-2.4,2.4-7.4,6.1-7.5,5.1c0.8-1.1,4.4-4,5.2-4.8c-0.9,0.7-2.1,1-1.6,0.4l1.5-1
									c0.6-1.2-3.7,2.6-1.8-0.1c0-0.3,2.7-3.4,1.3-2.1c-2.5,2.9-11,11.2-13.2,13c0.1-0.2,2-3.3,3.2-4.7c1.9-2.3,5.5-4.7,7.1-6.6
									c-0.7,0.6-1.6,1.3-1.9,1.5c0.4-0.7,2.1-1.9,1.5-1.9c-2.5,2.3-0.4-0.8-2.2,1.9c-1,0.4,0.2-0.8-0.3-1.1
									c-1.5,1.6-5.7,4.9-6.7,5.3c0.6-0.6,1.4-1.4,1.7-1.8c-0.4-0.8,0.4-2.2-0.1-2.8c0.5-0.6,1-1.6,2.2-2.5
									c-0.5,0.3-1.4,1.1-1.6,0.9c1.8-2.4,0.7,0.1,3-2.6c-1.4,1.4-2.4,1.4-3.5,2c-2.1,2.2,0.1,1,1.3,0.4c-3,2.9-6.6,5.6-8.6,6.3
									c-1.2,0.3,1.8-2.1,1.2-1.8c-0.3-1.4-6,4.4-4.6,1.5c1.6-2.2,3.8-3.7,5.2-5.1c1.1-0.3-0.6,1.8-0.3,2l0.6-1.2
									c0.8-0.5,1.5-0.7,1.1,0c1.5-1.9-1.1-1.8-0.2-4.1c-0.8,0.5-1.6,0.9-2.3,1.8l0.5,0c-1.4,1.7-2.6,1.7-3,2.7
									c-1.4,0.8-3.4,2.1-2.9,0.8l2.1-2.2c-0.6,0.6-1.1,1.5-0.3,1c-1.1,0.8,2.4-3.5-0.7-0.9l-1.2,1.8c-1.4,0.8-4.1,2.7-3.7,1.6
									c-2,2.3,0.3-0.2-2,2.6c2.9-3.3,0.8,1.1,3.8-2.5c-2.7,3.1-0.8,1.7-3,4.5c0.7-0.7,1.3-1.5,1.2-0.8c0.2-0.2,0.5-0.4,0.7-0.6
									c0,0,0,0,0,0.1c0,0,0-0.1,0.1-0.1c0.1-0.1,0.1-0.1,0,0c0.2-0.4,0.6-0.8,1-1.2c1.8-1.5,2.2-0.9,3.3-1.6
									c-0.2,0.5-0.9,0.7-1.6,1.6l1.5-1c-1.6,1.6-2.2,3.1-3.6,3.6l0.3,0.5c-0.7,1.1-0.7,1.8,0.1,1.3c-0.2,0.5,2.2-1.3,0.8-0.2
									l1.6-0.4l-0.4,0.4c0.4,0.8,3.9-1.4,1.6,2.1c0.6-0.2,1.3-0.5,1.2,0.3l-1.3,1.4c0.7-0.2-0.6,2.1,0.9,0.8
									c-3.5,3.9,0.4,2,0.2,3.1l1.8-1.7c0.2,0.4,1,0.2,2.1-0.1l1.6-1.6c1.6-0.9-0.3,2,0.4,2.3c-0.7,0.6-0.6,0.3-0.3-0.2
									c-3,4.2,3.9-1.2,1.8,1.9c0.7-0.4,0.6-0.1,0.3,0.4c0,0-0.1,0-0.1,0c0,0,0,0.1,0,0.1c-0.2,0.3-0.5,0.7-0.7,1
									c0.3-0.4,0.6-0.8,0.7-1c0.1,0.1,0.5,0.1,1.1-0.2l-1.7,1.7c0,0,0,0,0.1,0c-0.5,0.8,0.9-0.7,2.2-2c0.4-0.2,0.8-0.4,1.3-0.8
									c-2.7,2.8,1.4-0.5-1.4,2.6c1.6-1.3,1.9-0.2,5-3.1c-0.4,0.4-0.5,0.6-0.6,0.6c-0.2,0.5-0.3,1,0.7,0.4l-2.1,2.2l3.3-2.5
									c-1.1,1.5-1.8,2.4-3.7,3.8c3.2-1.9,1.4-0.5,4.5-2.5l-1.4,1.4c0.2,0.1,2.4-1.4,1.3-0.2c-2.3,3,1.5,2.3,0,5.8
									c4-4.2-1.4,2.3,1.9-0.8c-0.9,1-1.4,1.7-2.4,2.4c1.5-0.4-0.8,2.3,2.3,0c-0.9,1-1.6,1.3-2.1,1.9c0.3-0.2,1-0.7,0.5,0
									c-0.5,0.6-0.9,0.7-1.4,1.1c0.7,0.4,3.8-2.5,6.7-5.3c-1.1,1.6-0.8,1.5,1.3-0.1c-0.8,1-1.7,2.1-2.3,2.1c0,0.3-0.3,2.5,2,0.3
									c-0.5,0.6,0.1,0.4,0.4,0.2c0.3,0.5,0.1,0.8,0.7,1l0.3-0.5c2.9-2.5,0.9-0.3,1.6-0.3l-0.3,0.3c-1.3,2.7,1.3-0.6-0.3,2.3
									l1.7-1.7c3.8-3.5-1.5,2.8,0.3,1.8l0.8-1.1c1.5-1-4.4,5.5-4.6,6.2c-0.3,0.4-0.6,0.4-0.9,0.6c-1.6,2.7,2.3-2.1,3.3-2.2
									c-1.1,1.3-3.2,2.9-3.1,3.4c-0.8,1.1,4.8-2.9,2.9-0.2c0.8-1,1.7-2,2.6-2.5c0.7,0-2.7,4.3,0.6,1.8c-0.2,0.3-0.4,0.5-0.7,0.8
									c1-0.5,2.1-0.4,3.8-1.8c-5.7,6,4.4-1.2-1.1,4.1l1,0.5l-0.6,0.5c0.1,0.8,1.6-0.3,3.1-1.4c-0.3,0.5-0.9,0.9-1.2,1.2
									c-0.4,1.8-0.1,1.6,3.2-0.4l-1.7,1.8c1.2-0.8-1.8,3.7,1,2.4c-0.2,0.2-0.6,0.5-0.9,0.7c2.9-1.2-3.1,6.7,3.7,0.7l2.1-1
									c-0.2-1.2,2.9-2.6,3.7-3.9c0.6-0.1-1.3,2.6-1.9,2.6l0.3-0.4c-3.5,3.2-0.4,2-2.7,4.2c1.5,1.2,0.9,4.3,1.9,5.7l2.5-2.7
									l0.3,0.6c-0.5,0.7-1.9,2.1-2.1,1.7c-1.3,1.6,1.8-0.7,2.3-1.2c-0.5,1.6-3.3,2.7-3.2,3l0.4,0.1l0.3-0.4
									c1.3-0.8,2.4-1.9,2.7-1.4c-0.3,0.7-1.5,1.7-1.5,1.9c-0.2,0.2-0.2,0.3,0.1,0.2l0.3,0.8l1.9-2.2c1.3-0.7,0.4,0.6,2.5-1.9
									c-3.3,3.9,0.7,3.3-0.2,4.6c1.8-1.1,2.1-0.8,2.4-0.2c0.3-0.5,2.6-2.8,2.7-2.2c-4.9,4.5-1.5,2.7-4.6,6.3
									c2-2.5,1.6,0.5,4.4-3.1c-0.1,0.7-1.8,1.8-2.7,3.1c2.6-1.1,0.3,2.8,1.8,3c0.6-0.6,1.5-1.7,2.6-2.4l-2.7,3.5
									c0.5-0.1,3.8-3.4,1.9-0.9c0.5-0.6,1.2-1.4,1.5-1.5c-1.4,4.7,6,1.1,1.9,8.5c1-1.4,1.3-1.4,1.5-1.2c0.2-0.4,1.6-1.5,2.4-2.4
									l-1.7,3c2.5-2.2,0.9,0.6,3.3-1.5l-0.6,0.2c3-2.3,5.5-6.2,9-9.5c-3.4,2.6,3.6-5.3-1.3-1.6c0.6-0.8,1.2-1,1.9-1.8
									c-1.6,1.3-2.1,1.4-1.7,0.4l0.4-0.3c-1.2-0.6-0.2-2.4-0.2-4.3l-1.6,1.7c0-0.4,0.5-1,0.8-1.5c-2.8,2.2,0.5,0.8-2.6,3.3
									c3.2-3.6-1.4-1.6,2.3-5.6c-0.3-0.4-1.9,2-2.2,1.6l1-1.1l-1.5,1.2c0-0.4,1.2-1.8,2.1-2.7c-0.1,0.2,0.4-0.1,0.5-0.1
									c1-1.5-1.2-0.4-0.9-0.9l-0.3,1c-1.9,0-1.6-2.4-4.6-1.2l-0.7,0.8c-2.1,0.8,0.4-1.4-1.1-1.5l0.2-0.2c-0.9,0.6-1.5,0.8-1.6,0.5
									c1.1-0.7,1.5-2.1,2.8-2.9c-2.3,0.8-1.6,0.8-5.1,3.2l1.2-1.4c-1.4,1-2,1.6-2.7,1.6c1.4-0.8,1.8-2.2,3.6-3.3
									c2.2-3.6-4.1,1.7-0.2-2.8c-4,3.2-1.4,2.7-2.4,3.2c-1,1.3-3,2.4-2.9,1.8c-0.2-0.3,4.3-5,3.6-5.6c0,0.1,0.3-0.2,0.4-0.1
									c0.7-1.1-1.7,0.8-0.5-1c-2.4,2-0.2-0.5-3.1,2.2l1.2-0.1c-1.1,0.4-4.7,3.3-3.6,1.2c0.6-0.5,1.5-1.1,2.1-1.4
									c0.7-1-0.8,0.2-0.1-0.8c2.9-2.7,1.3,0.1,3.8-1.6c1-1.3-2.7,1.3,0.6-1.5c-4.2,3.5-0.1-1.1-3.5,1.4l1.7-1.6
									c-0.3,0.2-1.3,0.8-1.4,0.7l2.4-1.9c-2.2,1.5,1-2.3-0.3-1.6c0.7,0.6-1.9,2.1-2.9,3.6c-3.1,1.4,4-4.8,2.2-5
									c0.4-0.1-0.6,1.5-1.5,2c0.2-0.5,0.6-1.4,1.4-2.4c-1-0.3-1.7,1.8-3,2.5c1.9-2.2-1.1,0.5-2.1,0.9l1.7-1.7
									c0.4-1.8-3.8,3.3-3.1,1.4l2.7-2.1l-0.9,0.3l2-1.8c-1.8,1-1.6,0.6-1.3-0.3c-1.1,1.3-3.2,3-3.6,2.7c0.8-1.2,1.8-1.5,1.1-1.7
									c1.2-0.9,2.7-2.2,1.2-0.4c0.6-0.5,1.2-1,1.8-1.5c1-1.4-0.3-0.9-0.5-1c0,0.1,0,0.3-0.2,0.6l-3,1.7c0.6-0.7,1.2-1.2,1.7-1.6
									c-0.3,0-1.2,0.7-1.5,0.7c1.5-1.3,2.9-2.7,3.8-3.1l-2.2,0.9c0.6-0.6,1.4-1.9,2-2.4c0.5-1.1-3.6,1.8-2.9,0.3
									c-0.3,0.2-0.6,0.4-0.9,0.5c-0.1-0.7,1.3-2.8-1.2-1.4l2.2-2.7c-1,0.2-2.8,3.5-4.4,3.7c-1.3,0.3,2-2.3,2.5-3.1
									c-1.5,1-4.5,3.1-2.9,0.7C591.4,1085.1,591.1,1085.6,591.5,1085.6z M585.5,1081.7c0.5-0.3,1.8-1.2,0.8-0.1
									C584.3,1083.4,585.1,1082.4,585.5,1081.7z M574.1,1078.2c0.6-0.5,0.5-0.1-0.1,0.7C573.8,1078.9,573.8,1078.7,574.1,1078.2z
									 M541.7,1068.9C541.8,1068.9,541.8,1068.9,541.7,1068.9C541.4,1069.7,541.5,1069.4,541.7,1068.9z M542.1,1067.7
									c-0.3,0.2-0.5,0.4-0.7,0.7c0.5-0.4,0.6-0.3,0.6-0.1C542.3,1067.9,542.6,1067.5,542.1,1067.7z M588.9,1114.8l0.4-0.5
									C590,1114,589.5,1114.4,588.9,1114.8z"/>
								<path id="XMLID_232_" class="st1" d="M577.3,1076.8c-0.3,0.3-0.6,0.6-0.9,1C576.7,1077.5,577,1077.1,577.3,1076.8z"/>
								<path id="XMLID_231_" class="st1" d="M595.3,1087.8C595.3,1087.8,595.3,1087.8,595.3,1087.8c0.1-0.1,0.2-0.2,0.3-0.3
									L595.3,1087.8z"/>
								<path id="XMLID_230_" class="st1" d="M563.4,1060.4c-0.2,0.3-0.4,0.7-0.7,1C563.1,1061,563.4,1060.6,563.4,1060.4z"/>
								<path id="XMLID_229_" class="st1" d="M536.8,1068.2l0.7-0.2c-0.2-0.1,0.1-0.5,0.3-0.8
									C537.5,1067.7,536.9,1068.3,536.8,1068.2z"/>
								<path id="XMLID_228_" class="st1" d="M545.2,1055.4c-0.3,0.2-0.1-0.1-0.4,0.1l-0.8,0.8
									C544.2,1056.4,545,1055.9,545.2,1055.4z"/>
								<path id="XMLID_227_" class="st1" d="M542.3,1062.4c1.4-1.4,0.8-1.1,0.3-1.1c0,0,0,0,0,0
									C540.6,1063.3,541.5,1062.8,542.3,1062.4z"/>
								<path id="XMLID_226_" class="st1" d="M542.5,1061.3c-0.1,0-0.2,0-0.2-0.1C541.5,1061.9,542.2,1061.4,542.5,1061.3z"/>
								<path id="XMLID_225_" class="st1" d="M540.5,1068.1c0.3-0.5-1.9,1.7-1.4,1.1C537.2,1070.9,542,1067.7,540.5,1068.1z"/>
								<polygon id="XMLID_224_" class="st1" points="547,1057.6 545.2,1059.4 546.8,1058.1 								"/>
								<path id="XMLID_223_" class="st1" d="M547.2,1060.4l0.2-0.8c-0.3,0.3-0.5,0.4-0.7,0.5C546.8,1060.4,546.7,1061,547.2,1060.4
									z"/>
								<path id="XMLID_222_" class="st1" d="M546.7,1060.1c-0.1-0.1-0.2-0.2-0.5,0C546.2,1060.2,546.4,1060.3,546.7,1060.1z"/>
								<polygon id="XMLID_221_" class="st1" points="547.9,1057.5 547.7,1058 547.7,1058.3 								"/>
								<path id="XMLID_220_" class="st1" d="M550.1,1064.2l0.9-0.2c0.7-0.6,0.9-1,0.6-0.9C551.1,1063.5,550.7,1063.6,550.1,1064.2z
									"/>
								<path id="XMLID_219_" class="st1" d="M554.1,1058.4c-0.3,0.5-0.7,0.9-1.2,1.5l2.2-2.1L554.1,1058.4z"/>
								<path id="XMLID_218_" class="st1" d="M555.6,1058.9c0.7-0.6,2.3-1.2,1.7-1.5C556.6,1057.9,555.8,1058.1,555.6,1058.9z"/>
								<polygon id="XMLID_217_" class="st1" points="557.8,1066.9 557.7,1066.8 554,1070.4 								"/>
								<path id="XMLID_216_" class="st1" d="M571,1063c0.5-1.3-2.4,2.1-1.6,0.7c-1,0.7-0.6,1.2-1.4,1.8
									C569.1,1064.8,568.7,1065.4,571,1063z"/>
								<path id="XMLID_215_" class="st1" d="M568,1065.5c-0.2,0.1-0.4,0.2-0.7,0.4C567.6,1065.7,567.8,1065.6,568,1065.5z"/>
								<polygon id="XMLID_214_" class="st1" points="602.7,1132.8 602.2,1133.8 603.3,1132.4 								"/>
								<path id="XMLID_213_" class="st1" d="M605.9,1130.7l-2.3,2.3l2.3-1.9C605.7,1131.1,605.4,1131.2,605.9,1130.7z"/>
								<path id="XMLID_212_" class="st1" d="M589.5,1076.4l-0.6,0.5c-0.6,0.6-0.6,0.7-0.5,1L589.5,1076.4z"/>
								<polygon id="XMLID_211_" class="st1" points="591.3,1081.7 591.2,1081.6 589.3,1083.7 								"/>
								<path id="XMLID_210_" class="st1" d="M596.9,1082.1c0-0.2-0.6,0.1-0.7-0.1C596.8,1081.9,594.3,1084.7,596.9,1082.1z"/>
							</g>
						</g>
					</g>
				</g>
			</g>
			<g id="XMLID_3_">
				<g id="XMLID_110_">
					<g id="XMLID_114_">
						<g id="XMLID_115_">
							<g id="XMLID_116_">
								<path id="XMLID_297_" class="st1" d="M645.5,1006c0.2-0.1-1.7-0.9-2-1C643.8,1005.4,646,1006.2,645.5,1006z"/>
								<polygon id="XMLID_202_" class="st1" points="648.7,1010.7 647.9,1010.3 649.7,1011.5 								"/>
								<path id="XMLID_201_" class="st1" d="M647.5,1013.2c3.4,1.2-0.1-1.2,1.2-1.1l0.8,0.2l-2.5-1.3
									C647.2,1011.8,648.6,1013.2,647.5,1013.2z"/>
								<path id="XMLID_200_" class="st1" d="M639.8,1011.6c1.3,0.5,1,0.8,0.5-0.2c-0.2,0-0.2-0.1-0.3-0.1
									C640,1011.4,640,1011.5,639.8,1011.6z"/>
								<path id="XMLID_199_" class="st1" d="M640,1011.4C640,1011,638.9,1011.1,640,1011.4L640,1011.4z"/>
								<path id="XMLID_198_" class="st1" d="M640.2,1012.9l-1-0.8c-0.8-0.2-1.1,0-1.6-0.4C638.1,1012.4,638.9,1012.6,640.2,1012.9z
									"/>
								<path id="XMLID_197_" class="st1" d="M642.5,1014.3l-0.4-0.4C641.7,1013.8,641.6,1013.8,642.5,1014.3z"/>
								<path id="XMLID_196_" class="st1" d="M641.2,1013.1l0.8,0.8c0.6,0.2,1.6,0.6-0.3-0.3C642.7,1014,641.8,1013.5,641.2,1013.1z
									"/>
								<path id="XMLID_195_" class="st1" d="M641.8,1013.1c0.8,0.1,1.4,0,2.3,0.9C644,1013.1,641.6,1012.2,641.8,1013.1z"/>
								<path id="XMLID_194_" class="st1" d="M650.9,1014.8l1.1,0.1l-1-0.7C651.4,1014.6,649.8,1014.4,650.9,1014.8z"/>
								<path id="XMLID_193_" class="st1" d="M637.5,1014.5c0.7,0.3,1.9,0.7,2.8,1l-0.7-0.6C639.1,1014.8,638.6,1014.9,637.5,1014.5
									z"/>
								<path id="XMLID_192_" class="st1" d="M640.4,1015.5l1,0.9C641.7,1016.1,641.1,1015.8,640.4,1015.5z"/>
								<polygon id="XMLID_191_" class="st1" points="646.1,1015.9 643.8,1014.2 646,1016.1 								"/>
								<polygon id="XMLID_190_" class="st1" points="636.8,1015.9 635.3,1015 637.6,1016.5 								"/>
								<path id="XMLID_189_" class="st1" d="M636.7,1017.1c-1.3-0.7-2.4-0.7-3.1-1.3c0.1,0.4,1.2,1.1,2.1,1.8
									C635.2,1017.1,635.4,1016.9,636.7,1017.1z"/>
								<path id="XMLID_188_" class="st1" d="M637,1018.6c-0.3-0.2-0.8-0.6-1.4-1C635.9,1017.8,636.3,1018.1,637,1018.6z"/>
								<path id="XMLID_187_" class="st1" d="M640.8,1016.9c-0.4-0.2-1.6-0.6-2.1-0.5l2,0.7C640.7,1017,640.7,1017,640.8,1016.9z"/>
								<path id="XMLID_186_" class="st1" d="M640.7,1017.1L640.7,1017.1c-0.2,0.1-0.3,0.2-0.3,0.3
									C640.4,1017.3,640.5,1017.2,640.7,1017.1z"/>
								<path id="XMLID_185_" class="st1" d="M640.8,1016.9C640.8,1016.9,640.8,1016.9,640.8,1016.9C641,1017,641,1017,640.8,1016.9
									z"/>
								<path id="XMLID_184_" class="st1" d="M643.8,1016.2c1,0.7,2,1.7,3.8,1.9C646.4,1017.4,645.3,1017.3,643.8,1016.2z"/>
								<path id="XMLID_183_" class="st1" d="M643.3,1017.7l0.6-0.2c-0.5-0.2-1.3-0.5-1.8-0.8L643.3,1017.7z"/>
								<polygon id="XMLID_182_" class="st1" points="643.9,1018.2 643.3,1017.7 643.1,1017.8 								"/>
								<path id="XMLID_181_" class="st1" d="M639.2,1018.6c0.8,0.5,0.8,0.8,0.8,1.1c0.5-0.1,0.8-0.2,0.9-0.5
									C640.3,1018.9,639.2,1018.3,639.2,1018.6z"/>
								<path id="XMLID_180_" class="st1" d="M640.1,1017.9C640.1,1018,640.1,1018,640.1,1017.9
									C640.4,1018.1,640.4,1018.1,640.1,1017.9z"/>
								<path id="XMLID_179_" class="st1" d="M639,1021.9c0.1,0,0.3,0.1,0.4,0.1C639.3,1022,639.1,1021.9,639,1021.9L639,1021.9z"/>
								<path id="XMLID_178_" class="st1" d="M641.2,1019.3c0.5,0,0-0.3-0.5-0.7c0.1,0.2,0.2,0.4,0.2,0.6
									C641.1,1019.3,641.3,1019.4,641.2,1019.3z"/>
								<path id="XMLID_177_" class="st1" d="M637.7,1019.6c0.5,0.1,0.8,0.1,1.2,0.1C638.2,1019.5,637.2,1019.3,637.7,1019.6z"/>
								<path id="XMLID_176_" class="st1" d="M639.6,1017.9C639.6,1017.8,639.6,1017.8,639.6,1017.9
									C639.1,1017.7,639.3,1017.8,639.6,1017.9z"/>
								<path id="XMLID_175_" class="st1" d="M639.6,1017.9c0.2,0.2,0.7,0.5,1.1,0.8c-0.1-0.2-0.3-0.4-0.5-0.6
									C640,1018,639.8,1017.9,639.6,1017.9z"/>
								<path id="XMLID_174_" class="st1" d="M651.3,1028c-1.8-0.8-3.3-2-1.2-1.6c-1.2-1-7.3-3.3-10.8-4.4c0.8,0.4,1.5,0.7,2.4,1.5
									c1.1,0.3,2.7,0.1,4.2,1.1c0.7,1-0.8,0.2-1.9,0c2.4,0.7,3,2.1,6.4,3.4l-1-1C650,1027.4,650.8,1027.9,651.3,1028z"/>
								<path id="XMLID_173_" class="st1" d="M639.9,1021.3l-0.2-0.3c-0.4,0.1-1.2-0.1-2.7-0.5c0.8,0.7,1.4,1,2,1.3l0.6-0.7
									L639.9,1021.3z"/>
								<path id="XMLID_172_" class="st1" d="M640.1,1020.3c1.9,1,2.6,1.8,4.8,2.4c0.1-0.6-1.5-1.1-2.2-1.7c0.1,1-1-0.7-2.4-0.6
									c-0.3-0.3-0.3-0.5-0.3-0.7c-0.3,0-0.7,0.1-1.1,0c0,0,0.1,0,0.1,0l0,0c0,0,0,0,0,0c0.3,0.1,0.4,0.1,0.3,0.1c0,0,0,0,0,0
									C639.6,1020,639.8,1020.1,640.1,1020.3c-0.5,0.1-0.5-0.2-0.7-0.4c-0.1,0-0.2-0.1-0.3-0.1c0,0,0,0,0,0l0.7,1.3
									C640.1,1021,640.1,1020.7,640.1,1020.3z"/>
								<path id="XMLID_171_" class="st1" d="M651.8,1020.4c-0.2,0-0.3-0.1-0.5-0.2C651.5,1020.4,651.7,1020.5,651.8,1020.4z"/>
								<path id="XMLID_170_" class="st1" d="M650.4,1020.2c-0.3-0.2-1-0.6-0.7-0.7c0.7,0.1,0.9,0.4,1.6,0.7c-0.5-0.3-1.2-1-2.4-1.1
									l0.2,0.2c-0.8,0-3.5-0.6-3.7-0.8C647.3,1019.2,648.6,1019.7,650.4,1020.2z"/>
								<path id="XMLID_169_" class="st1" d="M645.7,1020.5l0.7,1.1l1.9,0.4l-1-0.4C647.8,1021.3,646.5,1020.9,645.7,1020.5z"/>
								<polygon id="XMLID_168_" class="st1" points="638,1021.6 635.9,1020.6 638.7,1022.2 								"/>
								<polygon id="XMLID_167_" class="st1" points="637.8,1022.5 636,1021.7 637,1022.4 								"/>
								<path id="XMLID_166_" class="st1" d="M639,1082.1l0.4,0.4C639.3,1082.4,639.2,1082.2,639,1082.1z"/>
								<path id="XMLID_165_" class="st1" d="M639.8,1080.7l-0.9-0.4C639.4,1080.6,639.7,1080.7,639.8,1080.7z"/>
								<path id="XMLID_164_" class="st1" d="M628.7,1044.3c-1.8-0.4-4.6-1.2-2.5-0.4l2,0.8C628,1044.4,628.3,1044.3,628.7,1044.3z"
									/>
								<path id="XMLID_163_" class="st1" d="M634.3,1064.3c0.2,0.1,0.4,0.1,0.6,0.2c-0.7-0.4-1.3-0.7-1.8-1
									C633.5,1063.7,633.9,1064,634.3,1064.3z"/>
								<path id="XMLID_162_" class="st1" d="M642.4,1068.1l-1.5-0.2C641.5,1068,642,1068.1,642.4,1068.1z"/>
								<path id="XMLID_161_" class="st1" d="M637.7,1090.9l1.9,1.1C639.8,1091.6,638.7,1091.4,637.7,1090.9z"/>
								<path id="XMLID_160_" class="st1" d="M634.7,1031.9c-0.9-0.1-1.3,0-1.5,0.1C634.5,1032.2,636.3,1032.7,634.7,1031.9z"/>
								<path id="XMLID_159_" class="st1" d="M618.1,1072.5c0.3,0.3,0.7,0.5,1.1,0.7C619,1072.9,618.6,1072.6,618.1,1072.5z"/>
								<path id="XMLID_158_" class="st1" d="M632.9,1032.8c0.2,0,0.3,0,0.5,0.1c-0.3-0.3-0.4-0.6-0.2-0.8
									C632.3,1031.9,631.6,1031.9,632.9,1032.8z"/>
								<path id="XMLID_157_" class="st1" d="M623.8,1118.9c-0.1,0-0.2,0-0.3,0C623.8,1118.9,623.8,1118.9,623.8,1118.9z"/>
								<path id="XMLID_156_" class="st1" d="M600.1,1118.6c-0.1-0.1,0-0.3,0-0.4C599.9,1118.2,599.9,1118.3,600.1,1118.6z"/>
								<path id="XMLID_155_" class="st1" d="M635.5,1025.7C635.4,1025.5,635.2,1025.6,635.5,1025.7L635.5,1025.7z"/>
								<path id="XMLID_154_" class="st1" d="M643.7,1028.2c0.2,0.1,0.5,0.3,0.9,0.5C644.2,1028.5,643.9,1028.3,643.7,1028.2z"/>
								<path id="XMLID_153_" class="st1" d="M644.5,1039.9C644.5,1039.9,644.5,1039.9,644.5,1039.9
									C644.9,1040.1,644.9,1040,644.5,1039.9z"/>
								<path id="XMLID_152_" class="st1" d="M636.5,1025.8c-0.3,0-0.5,0-0.7,0C636,1025.8,636.2,1025.9,636.5,1025.8z"/>
								<path id="XMLID_151_" class="st1" d="M635.5,1025.5c0.1,0,0.2-0.1,0.3-0.1C635.5,1025.2,635.2,1025.2,635.5,1025.5z"/>
								<path id="XMLID_150_" class="st1" d="M635.4,1026c0-0.1,0.2-0.2,0.3-0.2c-0.2,0-0.3-0.1-0.3-0.1
									C635.5,1025.8,635.5,1025.9,635.4,1026z"/>
								<path id="XMLID_149_" class="st1" d="M625.1,1101.2c-0.1,0-0.1,0-0.2,0C625.6,1101.7,625.5,1101.6,625.1,1101.2z"/>
								<path id="XMLID_148_" class="st1" d="M647.4,1058.1C647.3,1058.1,647.3,1058.1,647.4,1058.1c-0.1-0.1-0.1-0.1-0.2-0.1
									L647.4,1058.1z"/>
								<path id="XMLID_147_" class="st1" d="M648.6,1059.4c-2.4-1.4-2-1.4-1.4-1.4l-5.8-2.2L648.6,1059.4z"/>
								<path id="XMLID_140_" class="st1" d="M638.1,1085.8l2,0.3c2.7,1.8,1.5,1.8,4.2,2.4c-6.2-2.7,0.1-2.1-6.1-4.9l1.4,0.3
									c-0.1,0.1,0.3,0.2,0.2,0.3c3.2,0.7-4.3-2.4-3.1-2.8c0.6-0.1,1.6,0.1,2.2,0.6l-1.3-1.3c0.2-0.1,1.3,0.4,1.1,0.5l-0.1-1.1
									l0.2,0.1c-0.9-0.6-2.3-1.5-2.9-1.9c1,0.1,0.6,0.4,1.4,0.7l-1.3-1.2c1.7,0.5,3.1,1.6,2.7,1.8c6.4,2.2-1.4-1.1,2.7-0.6
									l0.6,0.8c3.7,1.2,2.6,0.3,5,0.7c-1.2-0.4-6-1.3-7.3-2.5c0.5,0,0.9-0.1-0.3-0.9c2.2,0.9,1.8,0.4,1.8,0l2.9,1.3
									c-0.7-0.8-2.2-1.4-3.4-2.2c0.5-0.3,2.8,0.6,4.8,1.3c0.8-0.5-3.9-1.1-4.1-2.2c1.4-0.1,0.4-1-1.1-2.5c1.2,0,1.8,0.8,2.7,1.1
									l-2.2-1.4c0.1-0.1,0.8,0.3,1.2,0.4c-0.8-0.7-2.9-1.3-3.5-2.1c-3.2-1.5,5.2,1,1.7-1.1c0.9,0.2,1.8,0.8,2.9,1.3
									c-2.1-1.9-1.5-1.5-4.4-3.5l2.2,0.3c-2.4-0.5-4.8-2.2-6.7-3.6c-1.1-0.3-2.1-0.6-2.6-0.7l-1.3-1.4c0.5,0.1,1.5,0.6,2.7,1.3
									c-0.2-0.2-0.4-0.3-0.6-0.4c1.2,0.2,2.8,1.1,4.4,2c-0.6-0.2-1.3-0.3-1.9-0.5c1.7,1,3.6,2,5.3,2.7c-0.3-0.2-0.6-0.4-0.7-0.6
									c0.5,0.3,0.9,0.5,1.2,0.6c0.3,0.1-0.3-0.3-1-0.7l3.3,1.2l-1.3-0.6l2.5-0.1c-3-2.1-7.6-4.8-8.5-6.5c2.3,1.3,3.9,1.7,6.7,3
									c-3.1-1,0.9,1.4,0,1.7c0.4-0.2,1.8,0.5,2.2,0.8l-2.3-2.2c2.3,1,1.8,0.5,2.9,0.7c-4.7-1.8-2.7-2.1-4-3.1
									c1.6,0.6,3.1,1.4,2.5,1.8c3.7,0.9-5.1-3.1-1.9-2.3c0,0.1-0.3,0.1,0.5,0.5c-1.2-0.9,0.1-1.1,1.4-0.4l0,0.1
									c0.9-0.6,1.1-2.5-2.7-4.3c0.5,0.2,4.7,2.1,5.4,2.5l-12.5-7.1c3.3,1.6,11.5,4.5,13.1,6c0.6,0,1.2,0,0.2-0.9
									c-0.5-0.1-5-1.7-5.2-2.1c4,1.1,2.1,0.5,5.6,1.2c-0.8-0.1-6-2.6-5.7-2.8c0.8,0.4,5.2,2.2,5.7,2.6l-4.8-3
									c0.8,0.6,4.4,1.9,5.9,2.4c-1-0.4,0.4-0.6,0-1.1l-1.3-0.2c1.2-0.6-6.9-4-6.2-4.8c1,0.6,6.5,3.1,7.3,2.9
									c-2.6-1.3-12.3-6.4-14-8l1.6,0.5l-1.5-1.3c3.8,2.1,11.7,6.7,14.8,8.7c1.3,0.2,1.8,0.7,1.9,0.1c1.5,0.4,2,1.2,2.1,1.4
									l1.4-0.8c-3.1-1.3-2.7-2.2-5.3-3.3l2.7,2.6c-3.1-1.3-8.5-4.5-7.5-5.1c1.3,0.3,5.4,2.5,6.5,2.9c-1-0.6-1.7-1.7-0.9-1.4
									l1.5,1.1c1.4,0-3.8-2.5-0.6-1.8c0.3-0.1,4.2,1.1,2.4,0.3c-3.7-1.2-14.6-5.8-17.1-7.2c0.3,0,3.8,0.4,5.6,1
									c2.9,0.9,6.4,3.3,8.9,4c-0.8-0.4-1.8-1-2.1-1.2c0.8,0.1,2.6,1.2,2.4,0.6c-3.1-1.4,0.6-0.8-2.6-1.3c-0.7-0.8,0.8-0.2,0.9-0.7
									c-2.1-0.7-6.7-3.4-7.4-4.2c0.8,0.4,1.9,0.7,2.4,0.9c0.7-0.8,2.3-0.6,2.7-1.4c0.8,0.2,1.9,0.2,3.2,1
									c-0.5-0.4-1.5-0.9-1.5-1.2c2.9,0.7,0.2,0.7,3.6,1.8c-1.8-0.8-2.2-1.7-3.2-2.6c-2.9-1.1-0.9,0.6,0.1,1.4
									c-3.9-1.7-7.7-4-9.1-5.7c-0.7-1.1,2.6,0.8,2.1,0.4c1.2-1-6.3-4-3.1-3.9c2.7,0.6,4.9,2.1,6.7,2.8c0.7,1-1.9,0.2-2,0.6l1.4,0
									c0.7,0.5,1.2,1.2,0.4,1.1c2.4,0.6,1.4-2,3.8-2.1c-0.8-0.5-1.5-1.2-2.5-1.5l0.2,0.5c-2.1-0.6-2.5-1.8-3.6-1.8
									c-1.2-1-3.2-2.4-1.8-2.5l2.9,1.1c-0.8-0.3-1.8-0.3-1.1,0.2c-1.1-0.8,4.2,0.7,0.6-1.1l-2.1-0.4c-1.2-1-4-2.8-2.9-3
									c-2.9-1,0.3,0.3-3.1-0.8c4.2,1.4-0.7,1.3,3.7,2.6c-3.9-1.2-1.9,0-5.3-0.9c0.9,0.4,1.9,0.6,1.2,0.8c0.3,0.1,0.6,0.3,0.8,0.4
									c0,0,0,0-0.1,0c0,0,0.1,0,0.1,0c0.1,0.1,0.2,0.1,0,0c0.5,0.1,1,0.2,1.5,0.4c2,1.1,1.7,1.8,2.7,2.5c-0.6,0.1-1-0.6-2.1-0.8
									l1.5,1.1c-2.1-0.9-3.7-0.8-4.7-1.9l-0.3,0.5c-1.3-0.2-1.9,0.1-1.2,0.7c-0.6,0.1,2,1.6,0.5,0.7l0.9,1.4l-0.5-0.2
									c-0.6,0.7,2.7,3.2-1.5,2.6c0.4,0.5,0.9,1.1,0.1,1.3l-1.8-0.7c0.5,0.6-2.3,0.3-0.5,1.3c-5-1.7-1.8,1.3-2.9,1.6l2.3,1
									c-0.3,0.4,0.2,1.1,0.9,2.1l2.1,0.8c1.5,1.2-2,0.6-2.1,1.4c-0.8-0.4-0.5-0.5,0.1-0.4c-5-1.1,2.6,3.4-1.2,2.7
									c0.7,0.5,0.3,0.6-0.2,0.5c0,0,0-0.1-0.1-0.1c0,0-0.1,0-0.1,0.1c-0.4-0.1-0.8-0.1-1.2-0.2c0.5,0.1,1,0.2,1.2,0.2
									c0,0.2,0.1,0.5,0.5,1l-2.3-0.8c0,0,0,0,0,0.1c-0.9-0.1,1,0.6,2.7,1.2c0.3,0.3,0.7,0.6,1.2,0.9c-3.7-1.3,0.9,1.1-3-0.2
									c1.8,1,0.9,1.8,4.7,3.6c-0.5-0.2-0.8-0.2-0.8-0.4c-0.6,0.1-1.1,0.1-0.1,0.8l-2.9-1.1l3.5,2.2c-1.9-0.4-2.9-0.7-4.9-1.9
									c3,2.3,1,1.2,4,3.3l-1.8-0.8c0,0.3,2.2,1.7,0.7,1.2c-3.7-0.9-1.7,2.6-5.5,2.7c5.5,2-2.7-0.4,1.4,1.5
									c-1.3-0.5-2.1-0.6-3.1-1.3c0.9,1.3-2.5,0.3,0.8,2.3c-1.3-0.5-1.8-1-2.6-1.2c0.2,0.2,1,0.7,0.2,0.5c-0.8-0.2-1-0.6-1.5-0.9
									c-0.1,0.8,3.8,2.6,7.4,4.2c-1.9-0.4-1.7-0.1,0.5,1.2c-1.3-0.4-2.6-0.7-2.8-1.4c-0.3,0.2-2.4,0.9,0.5,2.1
									c-0.8-0.2-0.4,0.3-0.1,0.5c-0.4,0.5-0.7,0.5-0.7,1.2l0.5,0c3.4,1.7,0.6,0.8,0.8,1.5l-0.4-0.2c-3,0,1,1-2.3,0.8l2.2,0.9
									c4.7,2.1-3.2-0.3-1.7,1.1l1.4,0.3c1.5,1-6.8-1.8-7.6-1.7c-0.4-0.1-0.6-0.4-0.9-0.6c-3.2-0.3,2.8,1.4,3.2,2.3
									c-1.6-0.5-3.9-1.9-4.4-1.5c-1.4-0.3,4.5,3.5,1.3,2.8c1.3,0.4,2.5,0.8,3.3,1.5c0.2,0.7-5.1-0.7-1.5,1.4
									c-0.4-0.1-0.7-0.2-1-0.3c0.8,0.8,1.1,1.9,3.1,3c-7.8-2.9,2.7,3.8-4.3,0.8l-0.1,1.3l-0.7-0.3c-0.8,0.5,0.8,1.5,2.4,2.4
									c-0.5,0-1.2-0.4-1.5-0.6c-1.9,0.4-1.6,0.7,1.5,3l-2.3-0.9c1.2,0.8-4.2,0-2,2.1c-0.3-0.1-0.7-0.3-1-0.5c2.2,2.3-7.5,0,0.6,4
									l1.7,1.6c1.1-0.7,3.5,1.7,5.1,1.9c0.3,0.6-2.9-0.1-3.2-0.7l0.4,0.1c-4.2-2-2,0.5-5-0.7c-0.6,2-3.8,2.8-4.8,4.5l3.4,1.2
									l-0.5,0.5c-0.9-0.2-2.7-0.9-2.4-1.3c-2-0.6,1.3,1.4,2,1.8c-1.7,0.3-3.8-2-4-1.8l0.1,0.5l0.4,0.1c1.2,0.9,2.7,1.5,2.3,2
									c-0.8,0.1-2.1-0.7-2.3-0.6c-0.2-0.1-0.4-0.1-0.2,0.2l-0.6,0.7l2.8,0.8c1.2,0.9-0.5,0.7,2.7,1.6c-4.9-1.5-2.9,2.2-4.5,1.9
									c1.7,1.3,1.5,1.8,1,2.3c0.6,0.1,3.6,1.3,3.1,1.6c-6.1-2.8-3.1-0.2-7.7-1.7c3.1,0.9,0.1,1.8,4.5,3c-0.7,0.2-2.3-1-3.9-1.3
									c1.9,2-2.5,1.6-2.3,3.2c0.8,0.4,2.1,0.7,3.2,1.5l-4.3-1.1c0.3,0.4,4.6,2.2,1.6,1.5c0.7,0.2,1.8,0.6,2,0.8
									c-5,0.8,1.1,6.4-7.4,5.8c1.7,0.3,1.8,0.6,1.7,0.9c0.4,0,2,0.9,3.1,1.3l-3.5-0.3c3,1.5-0.3,1.2,2.6,2.6l-0.4-0.6
									c3.2,1.9,7.9,2.6,12.3,4.6c-3.7-2.2,6.3,1.2,1.1-2c1,0.2,1.4,0.8,2.4,1.1c-1.8-1-2.1-1.4-1-1.5l0.4,0.3
									c0.1-1.5,2.2-1.3,4.1-2.2l-2.2-0.8c0.4-0.2,1.1,0,1.7,0.1c-3.1-1.8-0.6,0.8-4.1-1.1c4.6,1.5,1-2.2,6.2-0.3
									c0.2-0.5-2.6-0.9-2.3-1.4l1.4,0.5l-1.7-0.9c0.4-0.2,2.2,0.4,3.4,0.9c-0.2,0,0.2,0.4,0.3,0.5c1.8,0.3-0.1-1.4,0.5-1.3l-1,0.1
									c-0.7-1.9,1.8-2.7-0.5-5.2l-1.1-0.3c-1.5-1.8,1.5-0.3,1-1.7l0.2,0.1c-0.9-0.7-1.3-1.2-1.1-1.4c1.1,0.8,2.6,0.5,3.7,1.4
									c-1.6-1.9-1.4-1.2-4.9-3.5l1.8,0.6c-1.4-0.9-2.2-1.3-2.5-2c1.3,1.1,2.7,0.8,4.5,2.1c4.2,0.5-3.1-3.3,2.6-1.4
									c-4.5-2.5-3-0.2-3.9-0.9c-1.6-0.4-3.3-1.9-2.7-2.1c0.3-0.3,6.3,2,6.6,1c-0.1,0.1,0.3,0.2,0.2,0.3c1.3,0.2-1.3-1.4,0.8-0.9
									c-2.8-1.5,0.4-0.5-3.2-2.1l0.5,1.2c-0.8-0.9-4.8-3.1-2.4-3c0.7,0.4,1.6,1,2,1.4c1.2,0.2-0.5-0.7,0.7-0.5
									c3.6,1.6,0.4,1.3,2.9,3c1.6,0.4-2.2-2.1,1.6-0.1c-4.9-2.5,1-0.6-2.6-2.9l2.2,1c-0.3-0.2-1.2-0.9-1.1-1l2.7,1.5
									c-2.2-1.5,2.5,0,1.4-1.1c-0.4,1-2.7-0.9-4.5-1.2c-2.4-2.5,6,1.7,5.5-0.1c0.2,0.3-1.6,0.1-2.5-0.6c0.6-0.1,1.5-0.1,2.8,0.3
									c-0.1-1.1-2.3-0.8-3.5-1.8c2.8,0.8-0.9-0.9-1.6-1.7l2.2,0.9c1.9-0.4-4.5-2.3-2.4-2.4l2.9,1.7l-0.6-0.8l2.5,1.2
									c-1.6-1.3-1.1-1.3-0.2-1.5c-1.6-0.6-4-1.8-3.9-2.3c1.5,0.3,2,1.1,2,0.3c1.3,0.7,3,1.6,0.8,1.1c0.7,0.3,1.3,0.7,2,1.1
									c1.7,0.3,0.7-0.7,0.8-0.9c-0.1,0.1-0.3,0.1-0.6,0l-2.7-2.3c0.9,0.2,1.5,0.6,2.1,1c-0.2-0.3-1.1-0.9-1.2-1.2
									c1.8,0.8,3.6,1.6,4.3,2.4l-1.6-1.8c0.8,0.3,2.3,0.5,3,0.9c1.3,0-3-2.7-1.3-2.8c-0.3-0.2-0.6-0.4-0.8-0.6
									c0.7-0.4,3.1,0,1-1.8l3.4,1c-0.5-0.9-4.3-1.2-5.1-2.7c-0.7-1.1,2.9,0.9,3.9,1.1c-1.5-1-4.5-3-1.7-2.5
									C638.5,1085.6,638,1085.5,638.1,1085.8z M639.7,1078.1c0.4,0.3,1.7,1.2,0.4,0.8C637.6,1077.6,638.9,1078.1,639.7,1078.1z
									 M639,1065.1c0.7,0.4,0.3,0.4-0.7,0.2C638.2,1065.1,638.3,1065,639,1065.1z M636.4,1028.6c0,0,0.1,0,0.1,0.1
									C635.5,1028.6,635.9,1028.6,636.4,1028.6z M637.6,1028.3c-0.3-0.2-0.6-0.3-0.9-0.4c0.5,0.3,0.5,0.4,0.3,0.5
									C637.6,1028.6,638,1028.7,637.6,1028.3z M609.3,1096.8l0.6,0.1C610.4,1097.5,609.9,1097.2,609.3,1096.8z"/>
								<path id="XMLID_139_" class="st1" d="M641.5,1067.6c-0.4-0.1-0.8-0.3-1.2-0.5C640.6,1067.4,641,1067.6,641.5,1067.6z"/>
								<path id="XMLID_138_" class="st1" d="M637.4,1090.7C637.4,1090.7,637.4,1090.7,637.4,1090.7c0.1,0.1,0.2,0.1,0.4,0.2
									L637.4,1090.7z"/>
								<path id="XMLID_137_" class="st1" d="M652.2,1046.2c-0.4,0-0.8-0.1-1.3-0.2C651.5,1046.2,652,1046.4,652.2,1046.2z"/>
								<path id="XMLID_136_" class="st1" d="M635.3,1023.4l0.4,0.7c0-0.2,0.5-0.1,0.9-0.1C636,1023.7,635.3,1023.5,635.3,1023.4z"
									/>
								<path id="XMLID_135_" class="st1" d="M650.5,1025.7c-0.2-0.2,0-0.1-0.2-0.3l-1-0.4C649.2,1025.3,650,1025.8,650.5,1025.7z"
									/>
								<path id="XMLID_134_" class="st1" d="M642.8,1026.1c1.9,0.8,1.4,0.2,1.1-0.2c0,0,0,0,0,0.1
									C641.3,1024.8,642.1,1025.5,642.8,1026.1z"/>
								<path id="XMLID_133_" class="st1" d="M643.9,1025.9c0-0.1-0.1-0.2,0.1-0.3C642.9,1025.1,643.7,1025.6,643.9,1025.9z"/>
								<path id="XMLID_132_" class="st1" d="M636.7,1027c0.5,0.1-2.3-1.1-1.6-0.9C632.9,1025,637.7,1028.3,636.7,1027z"/>
								<polygon id="XMLID_131_" class="st1" points="649.1,1028.5 646.7,1027.7 648.5,1028.6 								"/>
								<path id="XMLID_130_" class="st1" d="M646.4,1030.1l0.8-0.2c-0.4-0.2-0.6-0.3-0.7-0.5
									C646.3,1029.7,645.7,1029.8,646.4,1030.1z"/>
								<path id="XMLID_129_" class="st1" d="M646.5,1029.4c0.1-0.1,0.1-0.3-0.2-0.5C646.3,1029,646.3,1029.2,646.5,1029.4z"/>
								<polygon id="XMLID_128_" class="st1" points="649.5,1029.5 648.9,1029.4 648.6,1029.6 								"/>
								<path id="XMLID_127_" class="st1" d="M643.9,1034.8l0.4,0.8c0.8,0.4,1.3,0.5,1.1,0.1C644.9,1035.3,644.7,1035,643.9,1034.8z
									"/>
								<path id="XMLID_126_" class="st1" d="M650.8,1036c-0.5-0.1-1.1-0.3-1.8-0.5l2.8,1.2L650.8,1036z"/>
								<path id="XMLID_125_" class="st1" d="M650.9,1037.7c0.8,0.4,2,1.7,2.1,1C652.1,1038.3,651.7,1037.5,650.9,1037.7z"/>
								<polygon id="XMLID_124_" class="st1" points="644,1043.6 644.1,1043.5 639.4,1041.5 								"/>
								<path id="XMLID_123_" class="st1" d="M652.4,1055c1.4-0.1-2.8-1.4-1.2-1.3c-1-0.6-1.3-0.1-2.2-0.6
									C650,1054,649.3,1053.9,652.4,1055z"/>
								<path id="XMLID_122_" class="st1" d="M649,1053.1c-0.2-0.1-0.4-0.3-0.6-0.5C648.6,1052.9,648.8,1053,649,1053.1z"/>
								<polygon id="XMLID_121_" class="st1" points="597,1118.9 595.9,1118.8 597.5,1119.3 								"/>
								<path id="XMLID_120_" class="st1" d="M600.2,1121.1l-3-1.2l2.6,1.4C599.6,1121.2,599.5,1120.9,600.2,1121.1z"/>
								<path id="XMLID_119_" class="st1" d="M646.2,1079.7l-0.7-0.3c-0.8-0.3-0.9-0.2-1.1-0.1L646.2,1079.7z"/>
								<polygon id="XMLID_118_" class="st1" points="641.7,1083.8 641.8,1083.8 639.1,1082.8 								"/>
								<path id="XMLID_117_" class="st1" d="M643.3,1089.6c0.2-0.1-0.3-0.6-0.1-0.7C643.5,1089.5,639.9,1088.2,643.3,1089.6z"/>
							</g>
						</g>
					</g>
				</g>
			</g>
		</g>
	</g>
	<text id="XMLID_6_" transform="matrix(1 0 0 1 220.8985 287.5195)"><tspan x="0" y="0" class="st1 st2 st3">add your</tspan><tspan x="83.3" y="96" class="st1 st2 st3">first</tspan><tspan x="74.4" y="192" class="st1 st2 st3">crop</tspan></text>
</g>
</svg>
