<?xml version="1.0" encoding="utf-8"?>
<!-- Generator: Adobe Illustrator 19.0.0, SVG Export Plug-In . SVG Version: 6.00 Build 0)  -->
<svg version="1.1" id="Capa_1" xmlns="http://www.w3.org/2000/svg" xmlns:xlink="http://www.w3.org/1999/xlink" x="0px" y="0px"
	 viewBox="0 0 512 512" style="enable-background:new 0 0 512 512;" xml:space="preserve">
<g>
	<path id="XMLID_8_" class="st0" d="M420.3,370.4c-14.6-12.8-23.4-20-26.5-21.6c-10.6-5.7-23.6-7-39.2-4.1
		c10.2,16.1,38.2,51.2,84,105.4c38.3,0.7,60.8,0.7,67.3,0C484.3,427.6,455.7,401.1,420.3,370.4z"/>
	<path id="XMLID_7_" class="st0" d="M434.8,91.8c8.4-1.6,14.3-2.5,17.8-2.5c0.4,0.9,1.5,3.1,3.3,6.6c1.5,2.6,2.4,4.9,2.7,7.1
		c2.4-0.4,10.5-3.4,24.4-9c-1.5-2.4-3.6-8.8-6.3-19.4c-2.2-8-5.7-12.8-10.4-14.2c-4.2-1.3-11.3-0.4-21.4,2.7
		c-11.5,3.5-19.7,5.1-24.6,4.9c0.5-1.1,0.1,7-1.4,24.4C422.4,93.2,427.7,93,434.8,91.8z"/>
	<path class="st0" d="M84.2,254.4c1.1,0.2,4.9,0.1,11.5-0.3c4.9-0.2,8.2,0.4,9.8,1.9c-0.9,9.7-1.9,15.8-3,18.3
		c-13.9,1.1-20.5,1.6-20,1.4c-1.5,3.3-1.9,8.6-1.4,15.9c0.7,7.7,0.7,12.6,0,14.8c1.3,1.8,4.1,2.5,8.5,1.9c4.2-0.5,6.9,0.4,8.2,2.7
		c-2.2,11.7-2.6,19.2-1.4,22.7c100,2.7,200.4,2.7,301.1,0c-0.4-2.2-1.3-6.1-2.7-11.8c-1.3-4.9-1.9-9.1-1.9-12.6
		c2.6-1.1,5.9-1.4,10.1-0.8c4.2,0.6,7.4,0.4,9.6-0.5c0-1.6,0.1-7.3,0.3-17c0.2-7.1-0.4-12.2-1.7-15.3c0.7,0.6-6.9,0.1-23-1.4
		c0.4-2.5-0.3-6.6-1.9-12.3c-1.3-4.7-1.2-8.3,0.3-10.7c1.5-0.7,5.9-0.7,13.1,0c7.1,0.5,12,0,14.5-1.7c1.5-3.3,3.7-7.3,6.9-12
		c3.6-5.9,6-9.9,7.1-12c5.3-9.7,7.3-20.4,6-32.3c-0.9-1.3-3.6-1.8-7.9-1.6c-4.2,0.4-6.7-0.1-7.4-1.4c-6-32.1-10.7-58.7-14-79.6
		c6-7.7,7.1-22.5,3.3-44.4H305.9c2.9,42.5-1.2,84.3-12.3,125.4h-17c-3.1,8.9-2.3,18.7,2.5,29.3c1.1,2.6,3.4,6.9,6.8,13.1
		c2.9,5.3,4.9,9.5,6,12.6c-13.9,0.6-21.4,1.1-22.7,1.6c-7.1-7.3-12-17.7-14.5-31.2c-2.7-14.4-2-28,2.2-40.8c2-1.5,5.5-1.9,10.4-1.4
		c5.1,0.5,8.2,0.5,9.3,0c0.4-2.7,1.6-9.7,3.8-20.8c1.6-8.2,2.5-15.6,2.5-22.2h-43c-2.2,0-5.8,0.2-10.9,0.6
		c-4.8,0.4-8.2,0.4-10.4,0.3c-7.8,0-13.4-1.7-16.7-5.2c9.9-3.6,25.4-6.7,46.5-9c23.6-2.9,39.6-5.5,48.2-7.9V86.3
		c-14.2,0.9-33.7,3.4-58.3,7.4c-25.5,4.2-44.8,6.8-57.7,7.9c-1.7,2.6-2.8,7.7-3.6,15.3c-0.9,7.5-2.3,12.5-4.1,15.1H85.8
		c-11.3,16.1-18.3,27.5-21.1,34.2c-6,14.6-7.7,31.3-4.9,50.1C67.6,227.1,75.8,239.8,84.2,254.4z M325.6,107.6h62.7
		c1.3,9.7,3.6,23.7,6.9,42.2c3.5,18.4,5.7,32.4,6.9,41.9h-90.1C314.5,169.4,319,141.4,325.6,107.6z"/>
	<path id="XMLID_4_" class="st0" d="M100.9,346.1c-0.5,0-1.1,0.3-1.6,0.8c-0.5,0.4-1,0.6-1.4,0.8c-9.1,9.1-21.2,22.1-36.1,38.9
		c-19.7,21.7-31.6,34.7-35.6,38.9c-1.5,1.6-3.7,3.7-6.8,6.3c-3.5,3.1-5.8,5.1-6.9,6c-4.9,4.6-7,8.7-6.3,12.3
		c22.6,2.9,44.5,2.9,65.7,0c43.1-70.6,64.5-105.8,64.3-105.4C120.3,344.9,108.5,345.3,100.9,346.1z"/>
	<path id="XMLID_3_" class="st0" d="M165.2,346.1c-27.7,52-44.5,87.1-50.4,105.4h67.1c9.3-48.4,15.4-83.5,18.3-105.4
		C187.3,342.8,175.6,342.8,165.2,346.1z"/>
	<path id="XMLID_2_" class="st0" d="M230.9,346.1c-2.7,10.2-6.9,44.9-12.3,104c23,2.9,46,2.9,69,0c-1.3-10-7.4-44.7-18.3-104
		C257.9,344.6,245.1,344.6,230.9,346.1z"/>
	<path id="XMLID_1_" class="st0" d="M310,344.7c-7.3-0.6-12.8-0.1-16.4,1.4c2.6,11.1,7.7,28,15.3,50.6c8.2,24.6,13.8,42.4,16.7,53.4
		c0.9,0.2,24.4,0.6,70.3,1.4c-1.5-2.7-24.9-38.3-70.3-106.8C323.2,345.1,318,345.1,310,344.7z"/>
</g>
</svg>
