<?xml version="1.0" encoding="utf-8"?>
<!-- Generator: Adobe Illustrator 19.0.0, SVG Export Plug-In . SVG Version: 6.00 Build 0)  -->
<svg version="1.1" id="Capa_1" xmlns="http://www.w3.org/2000/svg" xmlns:xlink="http://www.w3.org/1999/xlink" x="0px" y="0px"
	 viewBox="0 0 512 512" style="enable-background:new 0 0 512 512;" xml:space="preserve">
<g>
	<g>
		<path id="XMLID_7_" class="st0" d="M437.2,125.4c-6.7-52.9-51.3-93.9-105.9-93.9c-26.1,0-49.7,9.7-68.3,25.2
			c-17.5-22.3-44.4-37-75-37c-45.6,0-83.6,32-93.1,74.8C45.3,97.9,6,138.8,6,189.3c0,52.7,42.8,95.5,95.5,95.5
			c11.2,0,21.8-2.3,31.8-5.9c17.4,23.9,45.4,39.6,77.1,39.6c19.4,0,37.5-5.9,52.6-15.9c17.2,16.8,40.6,27.1,66.5,27.1
			c38.1,0,70.8-22.6,86.1-54.9c4.7,0.9,9.5,1.5,14.4,1.5c41.9,0,75.9-34,75.9-75.8C506,161.1,475.7,129.1,437.2,125.4z"/>
		<path id="XMLID_6_" class="st0" d="M103.9,329.8c0,0-29.4,47.8-29.4,64s13.2,29.3,29.4,29.3s29.4-13.2,29.4-29.3
			S103.9,329.8,103.9,329.8z"/>
		<path id="XMLID_5_" class="st0" d="M150.6,463c0,16.2,13.2,29.3,29.4,29.3s29.4-13.2,29.4-29.3s-29.4-64-29.4-64
			S150.6,446.8,150.6,463z"/>
		<path id="XMLID_4_" class="st0" d="M256,329.8c0,0-29.4,47.8-29.4,64s13.2,29.3,29.4,29.3s29.4-13.2,29.4-29.3
			S256,329.8,256,329.8z"/>
		<path id="XMLID_3_" class="st0" d="M302.7,463c0,16.2,13.2,29.3,29.4,29.3s29.4-13.2,29.4-29.3s-29.4-64-29.4-64
			S302.7,446.8,302.7,463z"/>
		<path id="XMLID_2_" class="st0" d="M378.7,393.8c0,16.2,13.2,29.3,29.4,29.3s29.3-13.2,29.3-29.3s-29.3-64-29.3-64
			S378.7,377.5,378.7,393.8z"/>
	</g>
</g>
</svg>
