<?xml version="1.0" encoding="utf-8"?>
<!-- Generator: Adobe Illustrator 19.0.0, SVG Export Plug-In . SVG Version: 6.00 Build 0)  -->
<svg version="1.1" id="Capa_1" xmlns="http://www.w3.org/2000/svg" xmlns:xlink="http://www.w3.org/1999/xlink" x="0px" y="0px"
	 viewBox="0 0 512 512" style="enable-background:new 0 0 512 512;" xml:space="preserve">
<g id="XMLID_5_">
	<path id="XMLID_4_" d="M456.9,8.5c-7.1,0-13.7,0.7-19.2,2L330.4,8.8v6.5l0-6.3L203,89.8h-10.2v-7.8c0,0-23.7-3.1-37.7-3.1
		c-15.8,0-36.9,3.1-36.9,3.1v7.8h-14.3v52.9h4.2c-0.1,11.7-2.2,21.4-9.6,27.7l-6.6,0.3v19H77.7L65.5,197l-11.8-7.2L42.4,197
		l-12.2-7.2L17.9,197l-11.2-7.2v125l10.9,7.3l11.8-7.3l12.7,7.3l10.9-7.3l11.8,7.3l12.7-7.3l11.5,7.3h2.9v19l227.2-0.3V329h85.2
		V182.2h-85.2v-11.8H215c-7.6-6-11.5-15.2-11.9-26.8L330.5,34.4l108.9-5c5.1,1,11.1,1.7,17.5,1.7c18.7,0,33.8-5.1,33.8-11.3
		C490.7,13.5,475.6,8.5,456.9,8.5z"/>
	<path id="XMLID_3_" d="M424.9,310.4c-0.1-9.8-8.3-14.6-6.6-15.5c1.7-0.9,8.5,3.7,16.5,9c15.1,10.1,29.2,30.4,38.7,48.7
		c8.9,17,2.3,38-14.7,46.9c-17,8.9-38,2.3-46.9-14.7C402.4,366.5,425.2,328.6,424.9,310.4z"/>
	<path id="XMLID_2_" d="M505.3,438.8c0,13.8-11.2,25-25,25c-13.8,0-25-11.2-25-25c0-14.9,14.5-31.9,20.8-43.4
		c3.3-6.1,2.9-9.5,4.2-9.5c1.4,0,1,4,4.2,10.4C490.4,407.9,505.3,423.9,505.3,438.8z"/>
	<path id="XMLID_1_" d="M467.8,485.2c0,10.1-8.2,18.4-18.4,18.4c-10.2,0-18.4-8.2-18.4-18.4c0-10.9,10.6-23.4,15.3-31.9
		c2.4-4.5,2.1-7,3.1-7c1,0,0.8,3,3.1,7.6C456.9,462.5,467.8,474.2,467.8,485.2z"/>
</g>
</svg>
